<?xml version="1.0" encoding="utf-8"?>
<!-- Generator: Adobe Illustrator 24.0.0, SVG Export Plug-In . SVG Version: 6.00 Build 0)  -->
<svg version="1.1" id="Layer_1" xmlns="http://www.w3.org/2000/svg" xmlns:xlink="http://www.w3.org/1999/xlink" x="0px" y="0px"
	 viewBox="0 0 480 180" style="enable-background:new 0 0 480 180;" xml:space="preserve">
<style type="text/css">
	.st0{fill:#F17E65;}
	.st1{fill:none;stroke:#4B4A50;stroke-miterlimit:10;}
	.st2{fill:none;}
	.st3{fill:none;stroke:#4B4A50;stroke-width:2;stroke-miterlimit:10;}
	.st4{fill:none;stroke:#4B4A50;stroke-width:2;stroke-miterlimit:10;stroke-dasharray:5.5714,5.5714;}
	.st5{fill:#E5BA70;}
	.st6{fill:#B0A091;}
	.st7{fill:#97BBA1;}
	.st8{fill:none;stroke:#4B4A50;stroke-width:2;stroke-miterlimit:10;stroke-dasharray:5;}
	.st9{fill:#938FA7;}
	.st10{enable-background:new    ;}
	.st11{fill:#4B4A50;}
	.st12{fill:#FFFFFF;}
</style>
<rect class="st0" width="44" height="150"/>
<line class="st1" x1="0" y1="30" x2="44" y2="30"/>
<line class="st1" x1="0" y1="60" x2="44" y2="60"/>
<line class="st1" x1="0" y1="90" x2="44" y2="90"/>
<g>
	<line class="st2" x1="0" y1="120" x2="44" y2="120"/>
	<g>
		<line class="st3" x1="0" y1="120" x2="2.5" y2="120"/>
		<line class="st4" x1="8.1" y1="120" x2="38.7" y2="120"/>
		<line class="st3" x1="41.5" y1="120" x2="44" y2="120"/>
	</g>
</g>
<rect x="109" class="st5" width="44" height="150"/>
<line class="st1" x1="109" y1="30" x2="153" y2="30"/>
<line class="st1" x1="109" y1="60" x2="153" y2="60"/>
<line class="st1" x1="109" y1="90" x2="153" y2="90"/>
<g>
	<line class="st2" x1="109" y1="120" x2="153" y2="120"/>
	<g>
		<line class="st3" x1="109" y1="120" x2="111.5" y2="120"/>
		<line class="st4" x1="117.1" y1="120" x2="147.7" y2="120"/>
		<line class="st3" x1="150.5" y1="120" x2="153" y2="120"/>
	</g>
</g>
<rect x="218" class="st6" width="44" height="150"/>
<line class="st1" x1="218" y1="30" x2="262" y2="30"/>
<line class="st1" x1="218" y1="60" x2="262" y2="60"/>
<line class="st1" x1="218" y1="90" x2="262" y2="90"/>
<g>
	<line class="st2" x1="218" y1="120" x2="262" y2="120"/>
	<g>
		<line class="st3" x1="218" y1="120" x2="220.5" y2="120"/>
		<line class="st4" x1="226.1" y1="120" x2="256.7" y2="120"/>
		<line class="st3" x1="259.5" y1="120" x2="262" y2="120"/>
	</g>
</g>
<rect x="327" class="st7" width="44" height="150"/>
<line class="st1" x1="327" y1="30" x2="371" y2="30"/>
<line class="st1" x1="327" y1="60" x2="371" y2="60"/>
<line class="st8" x1="327" y1="90" x2="371" y2="90"/>
<line class="st1" x1="327" y1="120" x2="371" y2="120"/>
<rect x="436" class="st9" width="44" height="150"/>
<line class="st1" x1="436" y1="30" x2="480" y2="30"/>
<line class="st8" x1="436" y1="60" x2="480" y2="60"/>
<line class="st1" x1="436" y1="90" x2="480" y2="90"/>
<line class="st1" x1="436" y1="120" x2="480" y2="120"/>
<g class="st10">
	<path class="st11" d="M3.6,165.6v4H2.3v-10h3.2c0.4,0,0.9,0.1,1.3,0.2s0.7,0.3,1,0.6s0.5,0.6,0.7,0.9s0.3,0.8,0.3,1.3
		s-0.1,0.9-0.3,1.3c-0.2,0.4-0.4,0.7-0.7,0.9s-0.7,0.4-1,0.6s-0.8,0.2-1.3,0.2H3.6z M3.6,164.5h2c0.3,0,0.6-0.1,0.8-0.1
		c0.2-0.1,0.5-0.2,0.6-0.4s0.3-0.4,0.4-0.6c0.1-0.2,0.2-0.5,0.2-0.8s-0.1-0.6-0.2-0.8s-0.2-0.4-0.4-0.6s-0.4-0.3-0.6-0.4
		s-0.5-0.1-0.8-0.1h-2V164.5z"/>
	<path class="st11" d="M12,159.6l1.6,5l1.8-5h1.6v10h-1.2v-4l0.1-4.2l-1.8,5.4h-0.7l-1.7-5.2l0.1,4v4h-1.2v-10H12z"/>
	<path class="st11" d="M25.1,169.6h-6.5v-0.9l3.3-3.6c0.3-0.3,0.5-0.6,0.7-0.9s0.4-0.5,0.5-0.7c0.1-0.2,0.2-0.4,0.3-0.6
		c0.1-0.2,0.1-0.4,0.1-0.6c0-0.2,0-0.5-0.1-0.7c-0.1-0.2-0.2-0.4-0.3-0.6s-0.3-0.3-0.6-0.4c-0.2-0.1-0.5-0.1-0.7-0.1
		c-0.3,0-0.6,0-0.9,0.1s-0.4,0.2-0.6,0.4c-0.2,0.2-0.3,0.4-0.4,0.6s-0.1,0.5-0.1,0.8h-1.3c0-0.4,0.1-0.8,0.2-1.2
		c0.1-0.4,0.4-0.7,0.6-1s0.6-0.5,1-0.7s0.9-0.2,1.4-0.2c0.5,0,0.9,0.1,1.3,0.2c0.4,0.1,0.7,0.3,1,0.6s0.5,0.5,0.6,0.9
		s0.2,0.7,0.2,1.1c0,0.3-0.1,0.6-0.2,0.9c-0.1,0.3-0.2,0.6-0.4,0.9s-0.4,0.6-0.6,0.8c-0.2,0.3-0.5,0.5-0.7,0.8l-2.7,2.9h5V169.6z"/>
	<path class="st11" d="M29.6,168.8c0-0.1,0-0.3,0.1-0.4s0.1-0.2,0.2-0.3c0.1-0.1,0.2-0.2,0.3-0.2s0.3-0.1,0.4-0.1s0.3,0,0.4,0.1
		s0.2,0.1,0.3,0.2c0.1,0.1,0.1,0.2,0.2,0.3s0.1,0.2,0.1,0.4c0,0.1,0,0.3-0.1,0.4c0,0.1-0.1,0.2-0.2,0.3s-0.2,0.2-0.3,0.2
		c-0.1,0-0.3,0.1-0.4,0.1s-0.3,0-0.4-0.1c-0.1,0-0.2-0.1-0.3-0.2s-0.1-0.2-0.2-0.3C29.6,169,29.6,168.9,29.6,168.8z"/>
	<path class="st11" d="M36.2,164.6l0.5-5h5.1v1.2h-4l-0.3,2.7c0.2-0.1,0.4-0.2,0.7-0.3s0.6-0.1,1-0.1c0.5,0,0.9,0.1,1.2,0.2
		s0.7,0.4,0.9,0.7c0.3,0.3,0.5,0.6,0.6,1s0.2,0.9,0.2,1.4c0,0.5-0.1,0.9-0.2,1.3s-0.3,0.8-0.6,1c-0.3,0.3-0.6,0.5-1,0.7
		c-0.4,0.2-0.9,0.3-1.4,0.3c-0.4,0-0.8-0.1-1.1-0.2s-0.7-0.3-1-0.5s-0.5-0.5-0.7-0.9s-0.3-0.8-0.3-1.2h1.2c0.1,0.6,0.3,1,0.6,1.3
		s0.8,0.4,1.3,0.4c0.3,0,0.6-0.1,0.8-0.2c0.2-0.1,0.4-0.3,0.6-0.5c0.2-0.2,0.3-0.4,0.4-0.7s0.1-0.6,0.1-0.9c0-0.3,0-0.6-0.1-0.9
		s-0.2-0.5-0.4-0.7c-0.2-0.2-0.4-0.4-0.6-0.5s-0.5-0.2-0.8-0.2c-0.2,0-0.4,0-0.5,0c-0.2,0-0.3,0.1-0.4,0.1s-0.2,0.1-0.3,0.2
		s-0.2,0.2-0.3,0.3L36.2,164.6z"/>
</g>
<g class="st10">
	<path class="st11" d="M116.8,165.6v4h-1.3v-10h3.2c0.4,0,0.9,0.1,1.3,0.2s0.7,0.3,1,0.6s0.5,0.6,0.7,0.9s0.3,0.8,0.3,1.3
		s-0.1,0.9-0.3,1.3c-0.2,0.4-0.4,0.7-0.7,0.9s-0.7,0.4-1,0.6s-0.8,0.2-1.3,0.2H116.8z M116.8,164.5h2c0.3,0,0.6-0.1,0.8-0.1
		c0.2-0.1,0.5-0.2,0.6-0.4s0.3-0.4,0.4-0.6c0.1-0.2,0.2-0.5,0.2-0.8s-0.1-0.6-0.2-0.8s-0.2-0.4-0.4-0.6s-0.4-0.3-0.6-0.4
		s-0.5-0.1-0.8-0.1h-2V164.5z"/>
	<path class="st11" d="M125.2,159.6l1.6,5l1.8-5h1.6v10h-1.2v-4l0.1-4.2l-1.8,5.4h-0.7l-1.7-5.2l0.1,4v4h-1.2v-10H125.2z"/>
	<path class="st11" d="M136.3,169.6H135v-8.3l-2.6,1v-1.2l3.8-1.4h0.1V169.6z"/>
	<path class="st11" d="M146.8,165.8c0,0.6-0.1,1.2-0.2,1.7c-0.1,0.5-0.4,0.9-0.6,1.2c-0.3,0.3-0.6,0.6-1,0.8s-0.9,0.3-1.4,0.3
		c-0.5,0-1-0.1-1.4-0.3s-0.7-0.4-1-0.8c-0.3-0.3-0.5-0.7-0.6-1.2c-0.1-0.5-0.2-1.1-0.2-1.7v-2.3c0-0.6,0.1-1.2,0.2-1.7
		c0.1-0.5,0.4-0.9,0.6-1.2s0.6-0.6,1-0.8c0.4-0.2,0.9-0.3,1.4-0.3c0.5,0,1,0.1,1.4,0.3c0.4,0.2,0.7,0.4,1,0.8s0.5,0.8,0.6,1.2
		c0.1,0.5,0.2,1.1,0.2,1.7V165.8z M141.7,165.5l3.9-3c-0.1-0.7-0.3-1.2-0.6-1.5c-0.3-0.3-0.8-0.5-1.4-0.5c-0.7,0-1.2,0.2-1.5,0.7
		c-0.3,0.4-0.5,1.1-0.5,2V165.5z M145.6,163.8l-3.9,3c0.1,0.6,0.3,1.1,0.6,1.5s0.8,0.5,1.3,0.5c0.7,0,1.2-0.2,1.5-0.7s0.5-1.1,0.5-2
		V163.8z"/>
</g>
<g class="st10">
	<path class="st11" d="M233.8,167.1c0-0.3-0.1-0.6-0.2-0.8s-0.3-0.4-0.5-0.5c-0.2-0.1-0.5-0.3-0.7-0.4s-0.5-0.2-0.8-0.3
		c-0.4-0.1-0.7-0.3-1.1-0.4s-0.7-0.4-1-0.6s-0.5-0.5-0.7-0.8c-0.2-0.3-0.3-0.7-0.3-1.1s0.1-0.8,0.3-1.1s0.4-0.6,0.7-0.9
		s0.7-0.4,1-0.5c0.4-0.1,0.8-0.2,1.2-0.2c0.4,0,0.9,0.1,1.3,0.2c0.4,0.1,0.8,0.3,1.1,0.6s0.6,0.6,0.7,0.9s0.3,0.8,0.3,1.2h-1.3
		c0-0.3-0.1-0.5-0.2-0.8c-0.1-0.2-0.2-0.4-0.4-0.6s-0.4-0.3-0.6-0.4c-0.2-0.1-0.5-0.1-0.8-0.1c-0.2,0-0.5,0-0.7,0.1
		s-0.4,0.2-0.6,0.3s-0.3,0.3-0.4,0.5s-0.2,0.4-0.2,0.7c0,0.3,0.1,0.5,0.2,0.7c0.1,0.2,0.3,0.4,0.5,0.5s0.5,0.3,0.7,0.3
		s0.5,0.2,0.7,0.2c0.2,0.1,0.5,0.2,0.7,0.3c0.3,0.1,0.5,0.2,0.7,0.3s0.4,0.3,0.6,0.4s0.4,0.3,0.5,0.5c0.2,0.2,0.3,0.4,0.4,0.7
		c0.1,0.2,0.1,0.5,0.1,0.8c0,0.4-0.1,0.8-0.3,1.2s-0.5,0.6-0.8,0.8c-0.3,0.2-0.7,0.4-1.1,0.5c-0.4,0.1-0.8,0.2-1.2,0.2
		c-0.4,0-0.9-0.1-1.3-0.2s-0.8-0.3-1.1-0.6c-0.3-0.3-0.6-0.6-0.8-0.9c-0.2-0.4-0.3-0.8-0.3-1.3h1.3c0,0.3,0.1,0.6,0.3,0.8
		c0.1,0.2,0.3,0.4,0.5,0.6c0.2,0.2,0.4,0.3,0.7,0.4c0.3,0.1,0.5,0.1,0.9,0.1c0.2,0,0.5,0,0.7-0.1c0.2-0.1,0.5-0.2,0.6-0.3
		c0.2-0.1,0.3-0.3,0.5-0.5C233.7,167.6,233.8,167.3,233.8,167.1z"/>
	<path class="st11" d="M243.5,165.2c0,0.4,0,0.7-0.1,1.1c-0.1,0.4-0.1,0.7-0.3,1c-0.1,0.3-0.3,0.7-0.5,0.9s-0.4,0.5-0.7,0.8
		c-0.3,0.2-0.5,0.4-0.9,0.5c-0.3,0.1-0.7,0.2-1.1,0.2c-0.4,0-0.8-0.1-1.1-0.2c-0.3-0.1-0.6-0.3-0.9-0.5s-0.5-0.5-0.7-0.8
		c-0.2-0.3-0.3-0.6-0.5-0.9s-0.2-0.7-0.3-1s-0.1-0.7-0.1-1.1V164c0-0.4,0-0.7,0.1-1.1c0.1-0.4,0.1-0.7,0.3-1s0.3-0.7,0.5-0.9
		c0.2-0.3,0.4-0.6,0.7-0.8c0.3-0.2,0.5-0.4,0.9-0.5c0.3-0.1,0.7-0.2,1.1-0.2c0.4,0,0.8,0.1,1.1,0.2c0.3,0.1,0.6,0.3,0.9,0.5
		c0.3,0.2,0.5,0.5,0.7,0.8c0.2,0.3,0.3,0.6,0.5,0.9c0.1,0.3,0.2,0.7,0.3,1.1c0.1,0.4,0.1,0.7,0.1,1.1V165.2z M242.2,164
		c0-0.2,0-0.5,0-0.7c0-0.3-0.1-0.5-0.1-0.8c-0.1-0.3-0.2-0.5-0.3-0.7c-0.1-0.2-0.2-0.4-0.4-0.6c-0.2-0.2-0.4-0.3-0.6-0.4
		c-0.2-0.1-0.5-0.2-0.8-0.2c-0.3,0-0.5,0.1-0.8,0.2s-0.4,0.2-0.6,0.4c-0.2,0.2-0.3,0.4-0.4,0.6c-0.1,0.2-0.2,0.5-0.3,0.7
		c-0.1,0.3-0.1,0.5-0.1,0.8c0,0.3,0,0.5-0.1,0.7v1.1c0,0.2,0,0.5,0.1,0.7s0.1,0.5,0.1,0.8c0.1,0.3,0.2,0.5,0.3,0.7s0.2,0.4,0.4,0.6
		c0.2,0.2,0.4,0.3,0.6,0.4s0.5,0.2,0.8,0.2c0.3,0,0.6-0.1,0.8-0.2s0.4-0.2,0.6-0.4c0.2-0.2,0.3-0.4,0.4-0.6c0.1-0.2,0.2-0.5,0.3-0.7
		c0.1-0.3,0.1-0.5,0.1-0.8c0-0.3,0-0.5,0-0.7V164z"/>
	<path class="st11" d="M251.5,169.6H245v-0.9l3.3-3.6c0.3-0.3,0.5-0.6,0.7-0.9c0.2-0.3,0.4-0.5,0.5-0.7c0.1-0.2,0.2-0.4,0.3-0.6
		c0.1-0.2,0.1-0.4,0.1-0.6c0-0.2,0-0.5-0.1-0.7c-0.1-0.2-0.2-0.4-0.3-0.6c-0.2-0.2-0.3-0.3-0.6-0.4c-0.2-0.1-0.5-0.1-0.7-0.1
		c-0.3,0-0.6,0-0.9,0.1c-0.2,0.1-0.4,0.2-0.6,0.4c-0.2,0.2-0.3,0.4-0.4,0.6c-0.1,0.3-0.1,0.5-0.1,0.8h-1.3c0-0.4,0.1-0.8,0.2-1.2
		c0.1-0.4,0.4-0.7,0.6-1c0.3-0.3,0.6-0.5,1-0.7c0.4-0.2,0.9-0.2,1.4-0.2c0.5,0,0.9,0.1,1.3,0.2c0.4,0.1,0.7,0.3,1,0.6
		s0.5,0.5,0.6,0.9c0.1,0.3,0.2,0.7,0.2,1.1c0,0.3,0,0.6-0.2,0.9c-0.1,0.3-0.2,0.6-0.4,0.9s-0.4,0.6-0.6,0.8
		c-0.2,0.3-0.5,0.5-0.7,0.8l-2.7,2.9h5V169.6z"/>
</g>
<g class="st10">
	<path class="st11" d="M343.8,169.6h-1.3l-3.9-7.4l0,7.4h-1.3v-10h1.3l3.9,7.4l0-7.4h1.3V169.6z"/>
	<path class="st11" d="M352.5,165.2c0,0.4,0,0.7-0.1,1.1c-0.1,0.4-0.1,0.7-0.3,1c-0.1,0.3-0.3,0.7-0.5,0.9s-0.4,0.5-0.7,0.8
		c-0.3,0.2-0.5,0.4-0.9,0.5c-0.3,0.1-0.7,0.2-1.1,0.2s-0.8-0.1-1.1-0.2c-0.3-0.1-0.6-0.3-0.9-0.5c-0.3-0.2-0.5-0.5-0.7-0.8
		c-0.2-0.3-0.3-0.6-0.5-0.9c-0.1-0.3-0.2-0.7-0.3-1c-0.1-0.4-0.1-0.7-0.1-1.1V164c0-0.4,0-0.7,0.1-1.1c0.1-0.4,0.1-0.7,0.3-1
		c0.1-0.3,0.3-0.7,0.5-0.9c0.2-0.3,0.4-0.6,0.7-0.8c0.3-0.2,0.5-0.4,0.9-0.5c0.3-0.1,0.7-0.2,1.1-0.2s0.8,0.1,1.1,0.2
		c0.3,0.1,0.6,0.3,0.9,0.5c0.3,0.2,0.5,0.5,0.7,0.8c0.2,0.3,0.3,0.6,0.5,0.9c0.1,0.3,0.2,0.7,0.3,1.1c0.1,0.4,0.1,0.7,0.1,1.1V165.2
		z M351.2,164c0-0.2,0-0.5,0-0.7c0-0.3-0.1-0.5-0.1-0.8c-0.1-0.3-0.2-0.5-0.3-0.7c-0.1-0.2-0.2-0.4-0.4-0.6
		c-0.2-0.2-0.4-0.3-0.6-0.4c-0.2-0.1-0.5-0.2-0.8-0.2c-0.3,0-0.5,0.1-0.8,0.2c-0.2,0.1-0.4,0.2-0.6,0.4c-0.2,0.2-0.3,0.4-0.4,0.6
		c-0.1,0.2-0.2,0.5-0.3,0.7c-0.1,0.3-0.1,0.5-0.1,0.8c0,0.3,0,0.5-0.1,0.7v1.1c0,0.2,0,0.5,0.1,0.7c0,0.3,0.1,0.5,0.1,0.8
		c0.1,0.3,0.2,0.5,0.3,0.7s0.2,0.4,0.4,0.6c0.2,0.2,0.4,0.3,0.6,0.4c0.2,0.1,0.5,0.2,0.8,0.2c0.3,0,0.6-0.1,0.8-0.2s0.4-0.2,0.6-0.4
		c0.2-0.2,0.3-0.4,0.4-0.6c0.1-0.2,0.2-0.5,0.3-0.7c0.1-0.3,0.1-0.5,0.1-0.8c0-0.3,0-0.5,0-0.7V164z"/>
	<path class="st11" d="M360.5,169.6H354v-0.9l3.3-3.6c0.3-0.3,0.5-0.6,0.7-0.9c0.2-0.3,0.4-0.5,0.5-0.7c0.1-0.2,0.2-0.4,0.3-0.6
		c0-0.2,0.1-0.4,0.1-0.6c0-0.2,0-0.5-0.1-0.7c-0.1-0.2-0.2-0.4-0.3-0.6c-0.2-0.2-0.3-0.3-0.6-0.4c-0.2-0.1-0.5-0.1-0.7-0.1
		c-0.3,0-0.6,0-0.9,0.1c-0.2,0.1-0.4,0.2-0.6,0.4c-0.2,0.2-0.3,0.4-0.4,0.6c-0.1,0.3-0.1,0.5-0.1,0.8h-1.3c0-0.4,0.1-0.8,0.2-1.2
		c0.1-0.4,0.4-0.7,0.6-1c0.3-0.3,0.6-0.5,1-0.7c0.4-0.2,0.9-0.2,1.4-0.2c0.5,0,0.9,0.1,1.3,0.2c0.4,0.1,0.7,0.3,1,0.6
		s0.5,0.5,0.6,0.9c0.1,0.3,0.2,0.7,0.2,1.1c0,0.3-0.1,0.6-0.2,0.9c-0.1,0.3-0.2,0.6-0.4,0.9s-0.4,0.6-0.6,0.8
		c-0.2,0.3-0.5,0.5-0.7,0.8l-2.7,2.9h5V169.6z"/>
</g>
<g class="st10">
	<path class="st11" d="M457.2,166.6c-0.1,0.5-0.2,0.9-0.4,1.3c-0.2,0.4-0.4,0.7-0.7,1c-0.3,0.3-0.6,0.5-1,0.6
		c-0.4,0.2-0.8,0.2-1.3,0.2c-0.4,0-0.8-0.1-1.1-0.2c-0.3-0.1-0.6-0.3-0.9-0.5c-0.3-0.2-0.5-0.4-0.7-0.7c-0.2-0.3-0.3-0.6-0.5-0.9
		c-0.1-0.3-0.2-0.7-0.3-1s-0.1-0.7-0.1-1.1v-1.4c0-0.4,0-0.7,0.1-1.1s0.2-0.7,0.3-1c0.1-0.3,0.3-0.6,0.5-0.9
		c0.2-0.3,0.4-0.5,0.7-0.7c0.3-0.2,0.6-0.4,0.9-0.5c0.3-0.1,0.7-0.2,1.1-0.2c0.5,0,0.9,0.1,1.3,0.2c0.4,0.2,0.7,0.4,1,0.7
		c0.3,0.3,0.5,0.6,0.7,1s0.3,0.8,0.3,1.3H456c0-0.3-0.1-0.6-0.2-0.8c-0.1-0.3-0.2-0.5-0.4-0.7c-0.2-0.2-0.4-0.3-0.6-0.5
		c-0.2-0.1-0.5-0.2-0.9-0.2c-0.3,0-0.6,0-0.8,0.1c-0.2,0.1-0.4,0.2-0.6,0.4c-0.2,0.2-0.3,0.4-0.4,0.6c-0.1,0.2-0.2,0.5-0.3,0.7
		s-0.1,0.5-0.1,0.8c0,0.3,0,0.5,0,0.8v1.4c0,0.2,0,0.5,0,0.8c0,0.3,0.1,0.5,0.1,0.8c0.1,0.3,0.2,0.5,0.3,0.7s0.2,0.4,0.4,0.6
		c0.2,0.2,0.4,0.3,0.6,0.4c0.2,0.1,0.5,0.1,0.8,0.1c0.3,0,0.6-0.1,0.9-0.2c0.2-0.1,0.5-0.3,0.6-0.4c0.2-0.2,0.3-0.4,0.4-0.7
		c0.1-0.3,0.2-0.5,0.2-0.8H457.2z"/>
	<path class="st11" d="M465.7,165.2c0,0.4,0,0.7-0.1,1.1c-0.1,0.4-0.1,0.7-0.3,1c-0.1,0.3-0.3,0.7-0.5,0.9s-0.4,0.5-0.7,0.8
		c-0.3,0.2-0.5,0.4-0.9,0.5c-0.3,0.1-0.7,0.2-1.1,0.2s-0.8-0.1-1.1-0.2c-0.3-0.1-0.6-0.3-0.9-0.5c-0.3-0.2-0.5-0.5-0.7-0.8
		c-0.2-0.3-0.3-0.6-0.5-0.9c-0.1-0.3-0.2-0.7-0.3-1c-0.1-0.4-0.1-0.7-0.1-1.1V164c0-0.4,0-0.7,0.1-1.1c0.1-0.4,0.1-0.7,0.3-1
		c0.1-0.3,0.3-0.7,0.5-0.9c0.2-0.3,0.4-0.6,0.7-0.8c0.3-0.2,0.5-0.4,0.9-0.5c0.3-0.1,0.7-0.2,1.1-0.2s0.8,0.1,1.1,0.2
		c0.3,0.1,0.6,0.3,0.9,0.5c0.3,0.2,0.5,0.5,0.7,0.8c0.2,0.3,0.3,0.6,0.5,0.9c0.1,0.3,0.2,0.7,0.3,1.1c0.1,0.4,0.1,0.7,0.1,1.1V165.2
		z M464.4,164c0-0.2,0-0.5,0-0.7c0-0.3-0.1-0.5-0.1-0.8c-0.1-0.3-0.2-0.5-0.3-0.7c-0.1-0.2-0.2-0.4-0.4-0.6
		c-0.2-0.2-0.4-0.3-0.6-0.4c-0.2-0.1-0.5-0.2-0.8-0.2c-0.3,0-0.5,0.1-0.8,0.2c-0.2,0.1-0.4,0.2-0.6,0.4c-0.2,0.2-0.3,0.4-0.4,0.6
		c-0.1,0.2-0.2,0.5-0.3,0.7c-0.1,0.3-0.1,0.5-0.1,0.8c0,0.3,0,0.5-0.1,0.7v1.1c0,0.2,0,0.5,0.1,0.7c0,0.3,0.1,0.5,0.1,0.8
		c0.1,0.3,0.2,0.5,0.3,0.7s0.2,0.4,0.4,0.6c0.2,0.2,0.4,0.3,0.6,0.4c0.2,0.1,0.5,0.2,0.8,0.2c0.3,0,0.6-0.1,0.8-0.2s0.4-0.2,0.6-0.4
		c0.2-0.2,0.3-0.4,0.4-0.6c0.1-0.2,0.2-0.5,0.3-0.7c0.1-0.3,0.1-0.5,0.1-0.8c0-0.3,0-0.5,0-0.7V164z"/>
</g>
<g>
	<g class="st10">
		<path class="st12" d="M21.1,130.8l-4.1,9.2h-1.3l4.1-8.8h-5.4v-1.1h6.7V130.8z"/>
		<path class="st12" d="M23.6,135.1l0.5-5h5.1v1.2h-4l-0.3,2.7c0.2-0.1,0.4-0.2,0.7-0.3s0.6-0.1,1-0.1c0.5,0,0.9,0.1,1.2,0.2
			s0.7,0.4,0.9,0.7c0.3,0.3,0.5,0.6,0.6,1s0.2,0.9,0.2,1.4c0,0.5-0.1,0.9-0.2,1.3s-0.3,0.8-0.6,1c-0.3,0.3-0.6,0.5-1,0.7
			c-0.4,0.2-0.9,0.3-1.4,0.3c-0.4,0-0.8-0.1-1.1-0.2s-0.7-0.3-1-0.5s-0.5-0.5-0.7-0.9s-0.3-0.8-0.3-1.2h1.2c0.1,0.6,0.3,1,0.6,1.3
			s0.8,0.4,1.3,0.4c0.3,0,0.6-0.1,0.8-0.2c0.2-0.1,0.4-0.3,0.6-0.5c0.2-0.2,0.3-0.4,0.4-0.7s0.1-0.6,0.1-0.9c0-0.3,0-0.6-0.1-0.9
			s-0.2-0.5-0.4-0.7c-0.2-0.2-0.4-0.4-0.6-0.5s-0.5-0.2-0.8-0.2c-0.2,0-0.4,0-0.5,0c-0.2,0-0.3,0.1-0.4,0.1s-0.2,0.1-0.3,0.2
			s-0.2,0.2-0.3,0.3L23.6,135.1z"/>
	</g>
	<g class="st10">
		<path class="st11" d="M14.7,110.1h-1.3v-8.3l-2.6,1v-1.2l3.8-1.4h0.1V110.1z"/>
		<path class="st11" d="M19.4,105.1l0.5-5H25v1.2h-4l-0.3,2.7c0.2-0.1,0.4-0.2,0.7-0.3s0.6-0.1,1-0.1c0.5,0,0.9,0.1,1.2,0.2
			c0.4,0.2,0.7,0.4,0.9,0.7c0.3,0.3,0.5,0.6,0.6,1s0.2,0.9,0.2,1.4c0,0.5-0.1,0.9-0.2,1.3c-0.1,0.4-0.3,0.8-0.6,1
			c-0.3,0.3-0.6,0.5-1,0.7c-0.4,0.2-0.9,0.3-1.4,0.3c-0.4,0-0.8-0.1-1.1-0.2c-0.4-0.1-0.7-0.3-1-0.5s-0.5-0.5-0.7-0.9
			c-0.2-0.3-0.3-0.8-0.3-1.2h1.2c0.1,0.6,0.3,1,0.6,1.3c0.3,0.3,0.8,0.4,1.3,0.4c0.3,0,0.6-0.1,0.8-0.2c0.2-0.1,0.4-0.3,0.6-0.5
			c0.2-0.2,0.3-0.4,0.4-0.7c0.1-0.3,0.1-0.6,0.1-0.9c0-0.3,0-0.6-0.1-0.9s-0.2-0.5-0.4-0.7c-0.2-0.2-0.4-0.4-0.6-0.5
			s-0.5-0.2-0.8-0.2c-0.2,0-0.4,0-0.5,0c-0.2,0-0.3,0.1-0.4,0.1s-0.2,0.1-0.3,0.2c-0.1,0.1-0.2,0.2-0.3,0.3L19.4,105.1z"/>
		<path class="st11" d="M33.6,106.3c0,0.6-0.1,1.2-0.2,1.7c-0.1,0.5-0.4,0.9-0.6,1.2c-0.3,0.3-0.6,0.6-1,0.8s-0.9,0.3-1.4,0.3
			c-0.5,0-1-0.1-1.4-0.3c-0.4-0.2-0.7-0.4-1-0.8c-0.3-0.3-0.5-0.7-0.6-1.2c-0.1-0.5-0.2-1.1-0.2-1.7V104c0-0.6,0.1-1.2,0.2-1.7
			c0.1-0.5,0.4-0.9,0.6-1.2c0.3-0.3,0.6-0.6,1-0.8c0.4-0.2,0.9-0.3,1.4-0.3c0.5,0,1,0.1,1.4,0.3c0.4,0.2,0.7,0.4,1,0.8
			c0.3,0.3,0.5,0.8,0.6,1.2c0.1,0.5,0.2,1.1,0.2,1.7V106.3z M28.5,106l3.9-3c-0.1-0.7-0.3-1.2-0.6-1.5c-0.3-0.3-0.8-0.5-1.3-0.5
			c-0.7,0-1.2,0.2-1.5,0.7c-0.3,0.4-0.5,1.1-0.5,2V106z M32.4,104.3l-3.9,3c0.1,0.6,0.3,1.1,0.6,1.5c0.3,0.3,0.8,0.5,1.3,0.5
			c0.7,0,1.2-0.2,1.5-0.7c0.3-0.5,0.5-1.1,0.5-2V104.3z"/>
	</g>
	<g class="st10">
		<path class="st11" d="M16.7,80.1h-6.5v-0.9l3.3-3.6c0.3-0.3,0.5-0.6,0.7-0.9s0.4-0.5,0.5-0.7c0.1-0.2,0.2-0.4,0.3-0.6
			c0.1-0.2,0.1-0.4,0.1-0.6c0-0.2,0-0.5-0.1-0.7c-0.1-0.2-0.2-0.4-0.3-0.6s-0.3-0.3-0.6-0.4c-0.2-0.1-0.5-0.1-0.7-0.1
			c-0.3,0-0.6,0-0.9,0.1s-0.4,0.2-0.6,0.4c-0.2,0.2-0.3,0.4-0.4,0.6s-0.1,0.5-0.1,0.8H10c0-0.4,0.1-0.8,0.2-1.2
			c0.1-0.4,0.4-0.7,0.6-1s0.6-0.5,1-0.7s0.9-0.2,1.4-0.2c0.5,0,0.9,0.1,1.3,0.2c0.4,0.1,0.7,0.3,1,0.6s0.5,0.5,0.6,0.9
			s0.2,0.7,0.2,1.1c0,0.3-0.1,0.6-0.2,0.9c-0.1,0.3-0.2,0.6-0.4,0.9s-0.4,0.6-0.6,0.8c-0.2,0.3-0.5,0.5-0.7,0.8l-2.7,2.9h5V80.1z"/>
		<path class="st11" d="M25.1,80.1h-6.5v-0.9l3.3-3.6c0.3-0.3,0.5-0.6,0.7-0.9s0.4-0.5,0.5-0.7c0.1-0.2,0.2-0.4,0.3-0.6
			c0.1-0.2,0.1-0.4,0.1-0.6c0-0.2,0-0.5-0.1-0.7c-0.1-0.2-0.2-0.4-0.3-0.6s-0.3-0.3-0.6-0.4c-0.2-0.1-0.5-0.1-0.7-0.1
			c-0.3,0-0.6,0-0.9,0.1s-0.4,0.2-0.6,0.4c-0.2,0.2-0.3,0.4-0.4,0.6s-0.1,0.5-0.1,0.8h-1.3c0-0.4,0.1-0.8,0.2-1.2
			c0.1-0.4,0.4-0.7,0.6-1s0.6-0.5,1-0.7s0.9-0.2,1.4-0.2c0.5,0,0.9,0.1,1.3,0.2c0.4,0.1,0.7,0.3,1,0.6s0.5,0.5,0.6,0.9
			s0.2,0.7,0.2,1.1c0,0.3-0.1,0.6-0.2,0.9c-0.1,0.3-0.2,0.6-0.4,0.9s-0.4,0.6-0.6,0.8c-0.2,0.3-0.5,0.5-0.7,0.8l-2.7,2.9h5V80.1z"/>
		<path class="st11" d="M27.8,75.1l0.5-5h5.1v1.2h-4L29.1,74c0.2-0.1,0.4-0.2,0.7-0.3s0.6-0.1,1-0.1c0.5,0,0.9,0.1,1.2,0.2
			s0.7,0.4,0.9,0.7c0.3,0.3,0.5,0.6,0.6,1s0.2,0.9,0.2,1.4c0,0.5-0.1,0.9-0.2,1.3s-0.3,0.8-0.6,1c-0.3,0.3-0.6,0.5-1,0.7
			c-0.4,0.2-0.9,0.3-1.4,0.3c-0.4,0-0.8-0.1-1.1-0.2s-0.7-0.3-1-0.5S28,79,27.8,78.7s-0.3-0.8-0.3-1.2h1.2c0.1,0.6,0.3,1,0.6,1.3
			s0.8,0.4,1.3,0.4c0.3,0,0.6-0.1,0.8-0.2c0.2-0.1,0.4-0.3,0.6-0.5c0.2-0.2,0.3-0.4,0.4-0.7s0.1-0.6,0.1-0.9c0-0.3,0-0.6-0.1-0.9
			s-0.2-0.5-0.4-0.7c-0.2-0.2-0.4-0.4-0.6-0.5s-0.5-0.2-0.8-0.2c-0.2,0-0.4,0-0.5,0c-0.2,0-0.3,0.1-0.4,0.1s-0.2,0.1-0.3,0.2
			s-0.2,0.2-0.3,0.3L27.8,75.1z"/>
	</g>
	<g class="st10">
		<path class="st11" d="M12.1,44.5H13c0.3,0,0.6,0,0.8-0.1s0.4-0.2,0.6-0.4s0.3-0.3,0.4-0.5s0.1-0.4,0.1-0.7c0-0.6-0.1-1-0.4-1.3
			c-0.3-0.3-0.7-0.4-1.3-0.4c-0.3,0-0.5,0-0.7,0.1c-0.2,0.1-0.4,0.2-0.6,0.3s-0.3,0.3-0.4,0.5s-0.1,0.4-0.1,0.7h-1.3
			c0-0.4,0.1-0.7,0.2-1.1c0.1-0.3,0.4-0.6,0.6-0.9c0.3-0.2,0.6-0.4,1-0.6c0.4-0.1,0.8-0.2,1.3-0.2c0.4,0,0.9,0.1,1.2,0.2
			c0.4,0.1,0.7,0.3,1,0.5s0.5,0.5,0.6,0.9s0.2,0.8,0.2,1.2c0,0.2,0,0.4-0.1,0.6S16,43.8,15.8,44c-0.1,0.2-0.3,0.4-0.5,0.5
			c-0.2,0.2-0.4,0.3-0.7,0.4c0.3,0.1,0.6,0.2,0.8,0.4s0.4,0.4,0.5,0.6s0.2,0.4,0.3,0.7s0.1,0.5,0.1,0.7c0,0.5-0.1,0.9-0.2,1.2
			s-0.4,0.7-0.7,0.9c-0.3,0.2-0.6,0.4-1,0.6c-0.4,0.1-0.8,0.2-1.2,0.2c-0.4,0-0.8-0.1-1.2-0.2s-0.7-0.3-1-0.5s-0.5-0.5-0.7-0.9
			S10,47.9,10,47.5h1.3c0,0.3,0,0.5,0.1,0.7s0.2,0.4,0.4,0.5s0.4,0.3,0.6,0.3s0.5,0.1,0.8,0.1s0.5,0,0.8-0.1
			c0.2-0.1,0.4-0.2,0.6-0.3s0.3-0.3,0.4-0.6c0.1-0.2,0.1-0.5,0.1-0.8c0-0.3-0.1-0.6-0.2-0.8c-0.1-0.2-0.2-0.4-0.4-0.6
			s-0.4-0.3-0.7-0.3s-0.6-0.1-0.9-0.1h-0.9V44.5z"/>
		<path class="st11" d="M25.2,46.3c0,0.6-0.1,1.2-0.2,1.7c-0.1,0.5-0.4,0.9-0.6,1.2c-0.3,0.3-0.6,0.6-1,0.8s-0.9,0.3-1.4,0.3
			c-0.5,0-1-0.1-1.4-0.3s-0.7-0.4-1-0.8c-0.3-0.3-0.5-0.7-0.6-1.2c-0.1-0.5-0.2-1.1-0.2-1.7V44c0-0.6,0.1-1.2,0.2-1.7
			c0.1-0.5,0.4-0.9,0.6-1.2s0.6-0.6,1-0.8c0.4-0.2,0.9-0.3,1.4-0.3c0.5,0,1,0.1,1.4,0.3c0.4,0.2,0.7,0.4,1,0.8s0.5,0.8,0.6,1.2
			c0.1,0.5,0.2,1.1,0.2,1.7V46.3z M20.1,46l3.9-3c-0.1-0.7-0.3-1.2-0.6-1.5C23,41.2,22.6,41,22,41c-0.7,0-1.2,0.2-1.5,0.7
			c-0.3,0.4-0.5,1.1-0.5,2V46z M24,44.3l-3.9,3c0.1,0.6,0.3,1.1,0.6,1.5s0.8,0.5,1.3,0.5c0.7,0,1.2-0.2,1.5-0.7s0.5-1.1,0.5-2V44.3z
			"/>
		<path class="st11" d="M33.6,46.3c0,0.6-0.1,1.2-0.2,1.7c-0.1,0.5-0.4,0.9-0.6,1.2c-0.3,0.3-0.6,0.6-1,0.8s-0.9,0.3-1.4,0.3
			c-0.5,0-1-0.1-1.4-0.3s-0.7-0.4-1-0.8c-0.3-0.3-0.5-0.7-0.6-1.2c-0.1-0.5-0.2-1.1-0.2-1.7V44c0-0.6,0.1-1.2,0.2-1.7
			c0.1-0.5,0.4-0.9,0.6-1.2s0.6-0.6,1-0.8c0.4-0.2,0.9-0.3,1.4-0.3c0.5,0,1,0.1,1.4,0.3c0.4,0.2,0.7,0.4,1,0.8s0.5,0.8,0.6,1.2
			c0.1,0.5,0.2,1.1,0.2,1.7V46.3z M28.5,46l3.9-3c-0.1-0.7-0.3-1.2-0.6-1.5C31.4,41.2,31,41,30.4,41c-0.7,0-1.2,0.2-1.5,0.7
			c-0.3,0.4-0.5,1.1-0.5,2V46z M32.4,44.3l-3.9,3c0.1,0.6,0.3,1.1,0.6,1.5s0.8,0.5,1.3,0.5c0.7,0,1.2-0.2,1.5-0.7s0.5-1.1,0.5-2
			V44.3z"/>
	</g>
	<g class="st10">
		<path class="st11" d="M12.1,14.5H13c0.3,0,0.6,0,0.8-0.1s0.4-0.2,0.6-0.4s0.3-0.3,0.4-0.5s0.1-0.4,0.1-0.7c0-0.6-0.1-1-0.4-1.3
			c-0.3-0.3-0.7-0.4-1.3-0.4c-0.3,0-0.5,0-0.7,0.1c-0.2,0.1-0.4,0.2-0.6,0.3s-0.3,0.3-0.4,0.5s-0.1,0.4-0.1,0.7h-1.3
			c0-0.4,0.1-0.7,0.2-1.1c0.1-0.3,0.4-0.6,0.6-0.9c0.3-0.2,0.6-0.4,1-0.6c0.4-0.1,0.8-0.2,1.3-0.2c0.4,0,0.9,0.1,1.2,0.2
			c0.4,0.1,0.7,0.3,1,0.5s0.5,0.5,0.6,0.9s0.2,0.8,0.2,1.2c0,0.2,0,0.4-0.1,0.6S16,13.8,15.8,14c-0.1,0.2-0.3,0.4-0.5,0.5
			c-0.2,0.2-0.4,0.3-0.7,0.4c0.3,0.1,0.6,0.2,0.8,0.4s0.4,0.4,0.5,0.6s0.2,0.4,0.3,0.7s0.1,0.5,0.1,0.7c0,0.5-0.1,0.9-0.2,1.2
			s-0.4,0.7-0.7,0.9c-0.3,0.2-0.6,0.4-1,0.6c-0.4,0.1-0.8,0.2-1.2,0.2c-0.4,0-0.8-0.1-1.2-0.2s-0.7-0.3-1-0.5s-0.5-0.5-0.7-0.9
			S10,17.9,10,17.5h1.3c0,0.3,0,0.5,0.1,0.7s0.2,0.4,0.4,0.5s0.4,0.3,0.6,0.3s0.5,0.1,0.8,0.1s0.5,0,0.8-0.1
			c0.2-0.1,0.4-0.2,0.6-0.3s0.3-0.3,0.4-0.6c0.1-0.2,0.1-0.5,0.1-0.8c0-0.3-0.1-0.6-0.2-0.8c-0.1-0.2-0.2-0.4-0.4-0.6
			s-0.4-0.3-0.7-0.3s-0.6-0.1-0.9-0.1h-0.9V14.5z"/>
		<path class="st11" d="M25.3,10.8l-4.1,9.2h-1.3l4.1-8.8h-5.4v-1.1h6.7V10.8z"/>
		<path class="st11" d="M27.8,15.1l0.5-5h5.1v1.2h-4L29.1,14c0.2-0.1,0.4-0.2,0.7-0.3s0.6-0.1,1-0.1c0.5,0,0.9,0.1,1.2,0.2
			s0.7,0.4,0.9,0.7c0.3,0.3,0.5,0.6,0.6,1s0.2,0.9,0.2,1.4c0,0.5-0.1,0.9-0.2,1.3s-0.3,0.8-0.6,1c-0.3,0.3-0.6,0.5-1,0.7
			c-0.4,0.2-0.9,0.3-1.4,0.3c-0.4,0-0.8-0.1-1.1-0.2s-0.7-0.3-1-0.5S28,19,27.8,18.7s-0.3-0.8-0.3-1.2h1.2c0.1,0.6,0.3,1,0.6,1.3
			s0.8,0.4,1.3,0.4c0.3,0,0.6-0.1,0.8-0.2c0.2-0.1,0.4-0.3,0.6-0.5c0.2-0.2,0.3-0.4,0.4-0.7s0.1-0.6,0.1-0.9c0-0.3,0-0.6-0.1-0.9
			s-0.2-0.5-0.4-0.7c-0.2-0.2-0.4-0.4-0.6-0.5s-0.5-0.2-0.8-0.2c-0.2,0-0.4,0-0.5,0c-0.2,0-0.3,0.1-0.4,0.1s-0.2,0.1-0.3,0.2
			s-0.2,0.2-0.3,0.3L27.8,15.1z"/>
	</g>
</g>
<g>
	<g class="st10">
		<path class="st12" d="M123.7,140.1h-1.3v-8.3l-2.6,1v-1.2l3.8-1.4h0.1V140.1z"/>
		<path class="st12" d="M134.2,136.3c0,0.6-0.1,1.2-0.2,1.7c-0.1,0.5-0.4,0.9-0.6,1.2c-0.3,0.3-0.6,0.6-1,0.8s-0.9,0.3-1.4,0.3
			c-0.5,0-1-0.1-1.4-0.3s-0.7-0.4-1-0.8c-0.3-0.3-0.5-0.7-0.6-1.2c-0.1-0.5-0.2-1.1-0.2-1.7V134c0-0.6,0.1-1.2,0.2-1.7
			c0.1-0.5,0.4-0.9,0.6-1.2s0.6-0.6,1-0.8c0.4-0.2,0.9-0.3,1.4-0.3c0.5,0,1,0.1,1.4,0.3c0.4,0.2,0.7,0.4,1,0.8s0.5,0.8,0.6,1.2
			c0.1,0.5,0.2,1.1,0.2,1.7V136.3z M129.1,136l3.9-3c-0.1-0.7-0.3-1.2-0.6-1.5c-0.3-0.3-0.8-0.5-1.4-0.5c-0.7,0-1.2,0.2-1.5,0.7
			c-0.3,0.4-0.5,1.1-0.5,2V136z M133,134.3l-3.9,3c0.1,0.6,0.3,1.1,0.6,1.5s0.8,0.5,1.3,0.5c0.7,0,1.2-0.2,1.5-0.7s0.5-1.1,0.5-2
			V134.3z"/>
		<path class="st12" d="M142.6,136.3c0,0.6-0.1,1.2-0.2,1.7c-0.1,0.5-0.4,0.9-0.6,1.2c-0.3,0.3-0.6,0.6-1,0.8s-0.9,0.3-1.4,0.3
			c-0.5,0-1-0.1-1.4-0.3s-0.7-0.4-1-0.8c-0.3-0.3-0.5-0.7-0.6-1.2c-0.1-0.5-0.2-1.1-0.2-1.7V134c0-0.6,0.1-1.2,0.2-1.7
			c0.1-0.5,0.4-0.9,0.6-1.2s0.6-0.6,1-0.8c0.4-0.2,0.9-0.3,1.4-0.3c0.5,0,1,0.1,1.4,0.3c0.4,0.2,0.7,0.4,1,0.8s0.5,0.8,0.6,1.2
			c0.1,0.5,0.2,1.1,0.2,1.7V136.3z M137.5,136l3.9-3c-0.1-0.7-0.3-1.2-0.6-1.5c-0.3-0.3-0.8-0.5-1.4-0.5c-0.7,0-1.2,0.2-1.5,0.7
			c-0.3,0.4-0.5,1.1-0.5,2V136z M141.4,134.3l-3.9,3c0.1,0.6,0.3,1.1,0.6,1.5s0.8,0.5,1.3,0.5c0.7,0,1.2-0.2,1.5-0.7s0.5-1.1,0.5-2
			V134.3z"/>
	</g>
	<g class="st10">
		<path class="st11" d="M125.7,110.1h-6.5v-0.9l3.3-3.6c0.3-0.3,0.5-0.6,0.7-0.9s0.4-0.5,0.5-0.7c0.1-0.2,0.2-0.4,0.3-0.6
			c0.1-0.2,0.1-0.4,0.1-0.6c0-0.2,0-0.5-0.1-0.7c-0.1-0.2-0.2-0.4-0.3-0.6s-0.3-0.3-0.6-0.4c-0.2-0.1-0.5-0.1-0.7-0.1
			c-0.3,0-0.6,0-0.9,0.1s-0.4,0.2-0.6,0.4c-0.2,0.2-0.3,0.4-0.4,0.6s-0.1,0.5-0.1,0.8H119c0-0.4,0.1-0.8,0.2-1.2
			c0.1-0.4,0.4-0.7,0.6-1s0.6-0.5,1-0.7s0.9-0.2,1.4-0.2c0.5,0,0.9,0.1,1.3,0.2c0.4,0.1,0.7,0.3,1,0.6s0.5,0.5,0.6,0.9
			s0.2,0.7,0.2,1.1c0,0.3-0.1,0.6-0.2,0.9c-0.1,0.3-0.2,0.6-0.4,0.9s-0.4,0.6-0.6,0.8c-0.2,0.3-0.5,0.5-0.7,0.8l-2.7,2.9h5V110.1z"
			/>
		<path class="st11" d="M134.2,106.3c0,0.6-0.1,1.2-0.2,1.7c-0.1,0.5-0.4,0.9-0.6,1.2c-0.3,0.3-0.6,0.6-1,0.8s-0.9,0.3-1.4,0.3
			c-0.5,0-1-0.1-1.4-0.3s-0.7-0.4-1-0.8c-0.3-0.3-0.5-0.7-0.6-1.2c-0.1-0.5-0.2-1.1-0.2-1.7V104c0-0.6,0.1-1.2,0.2-1.7
			c0.1-0.5,0.4-0.9,0.6-1.2s0.6-0.6,1-0.8c0.4-0.2,0.9-0.3,1.4-0.3c0.5,0,1,0.1,1.4,0.3c0.4,0.2,0.7,0.4,1,0.8s0.5,0.8,0.6,1.2
			c0.1,0.5,0.2,1.1,0.2,1.7V106.3z M129.1,106l3.9-3c-0.1-0.7-0.3-1.2-0.6-1.5c-0.3-0.3-0.8-0.5-1.4-0.5c-0.7,0-1.2,0.2-1.5,0.7
			c-0.3,0.4-0.5,1.1-0.5,2V106z M133,104.3l-3.9,3c0.1,0.6,0.3,1.1,0.6,1.5s0.8,0.5,1.3,0.5c0.7,0,1.2-0.2,1.5-0.7s0.5-1.1,0.5-2
			V104.3z"/>
		<path class="st11" d="M142.6,106.3c0,0.6-0.1,1.2-0.2,1.7c-0.1,0.5-0.4,0.9-0.6,1.2c-0.3,0.3-0.6,0.6-1,0.8s-0.9,0.3-1.4,0.3
			c-0.5,0-1-0.1-1.4-0.3s-0.7-0.4-1-0.8c-0.3-0.3-0.5-0.7-0.6-1.2c-0.1-0.5-0.2-1.1-0.2-1.7V104c0-0.6,0.1-1.2,0.2-1.7
			c0.1-0.5,0.4-0.9,0.6-1.2s0.6-0.6,1-0.8c0.4-0.2,0.9-0.3,1.4-0.3c0.5,0,1,0.1,1.4,0.3c0.4,0.2,0.7,0.4,1,0.8s0.5,0.8,0.6,1.2
			c0.1,0.5,0.2,1.1,0.2,1.7V106.3z M137.5,106l3.9-3c-0.1-0.7-0.3-1.2-0.6-1.5c-0.3-0.3-0.8-0.5-1.4-0.5c-0.7,0-1.2,0.2-1.5,0.7
			c-0.3,0.4-0.5,1.1-0.5,2V106z M141.4,104.3l-3.9,3c0.1,0.6,0.3,1.1,0.6,1.5s0.8,0.5,1.3,0.5c0.7,0,1.2-0.2,1.5-0.7s0.5-1.1,0.5-2
			V104.3z"/>
	</g>
	<g class="st10">
		<path class="st11" d="M121.1,74.5h0.9c0.3,0,0.6,0,0.8-0.1s0.4-0.2,0.6-0.4s0.3-0.3,0.4-0.5s0.1-0.4,0.1-0.7c0-0.6-0.1-1-0.4-1.3
			c-0.3-0.3-0.7-0.4-1.3-0.4c-0.3,0-0.5,0-0.7,0.1c-0.2,0.1-0.4,0.2-0.6,0.3s-0.3,0.3-0.4,0.5s-0.1,0.4-0.1,0.7h-1.3
			c0-0.4,0.1-0.7,0.2-1.1c0.1-0.3,0.4-0.6,0.6-0.9c0.3-0.2,0.6-0.4,1-0.6c0.4-0.1,0.8-0.2,1.3-0.2c0.4,0,0.9,0.1,1.2,0.2
			c0.4,0.1,0.7,0.3,1,0.5s0.5,0.5,0.6,0.9s0.2,0.8,0.2,1.2c0,0.2,0,0.4-0.1,0.6s-0.2,0.4-0.3,0.6c-0.1,0.2-0.3,0.4-0.5,0.5
			c-0.2,0.2-0.4,0.3-0.7,0.4c0.3,0.1,0.6,0.2,0.8,0.4s0.4,0.4,0.5,0.6s0.2,0.4,0.3,0.7s0.1,0.5,0.1,0.7c0,0.5-0.1,0.9-0.2,1.2
			s-0.4,0.7-0.7,0.9c-0.3,0.2-0.6,0.4-1,0.6c-0.4,0.1-0.8,0.2-1.2,0.2c-0.4,0-0.8-0.1-1.2-0.2s-0.7-0.3-1-0.5s-0.5-0.5-0.7-0.9
			s-0.2-0.7-0.2-1.2h1.3c0,0.3,0,0.5,0.1,0.7s0.2,0.4,0.4,0.5s0.4,0.3,0.6,0.3s0.5,0.1,0.8,0.1s0.5,0,0.8-0.1
			c0.2-0.1,0.4-0.2,0.6-0.3s0.3-0.3,0.4-0.6c0.1-0.2,0.1-0.5,0.1-0.8c0-0.3-0.1-0.6-0.2-0.8c-0.1-0.2-0.2-0.4-0.4-0.6
			s-0.4-0.3-0.7-0.3s-0.6-0.1-0.9-0.1h-0.9V74.5z"/>
		<path class="st11" d="M134.2,76.3c0,0.6-0.1,1.2-0.2,1.7c-0.1,0.5-0.4,0.9-0.6,1.2c-0.3,0.3-0.6,0.6-1,0.8s-0.9,0.3-1.4,0.3
			c-0.5,0-1-0.1-1.4-0.3s-0.7-0.4-1-0.8c-0.3-0.3-0.5-0.7-0.6-1.2c-0.1-0.5-0.2-1.1-0.2-1.7V74c0-0.6,0.1-1.2,0.2-1.7
			c0.1-0.5,0.4-0.9,0.6-1.2s0.6-0.6,1-0.8c0.4-0.2,0.9-0.3,1.4-0.3c0.5,0,1,0.1,1.4,0.3c0.4,0.2,0.7,0.4,1,0.8s0.5,0.8,0.6,1.2
			c0.1,0.5,0.2,1.1,0.2,1.7V76.3z M129.1,76l3.9-3c-0.1-0.7-0.3-1.2-0.6-1.5c-0.3-0.3-0.8-0.5-1.4-0.5c-0.7,0-1.2,0.2-1.5,0.7
			c-0.3,0.4-0.5,1.1-0.5,2V76z M133,74.3l-3.9,3c0.1,0.6,0.3,1.1,0.6,1.5s0.8,0.5,1.3,0.5c0.7,0,1.2-0.2,1.5-0.7s0.5-1.1,0.5-2V74.3
			z"/>
		<path class="st11" d="M142.6,76.3c0,0.6-0.1,1.2-0.2,1.7c-0.1,0.5-0.4,0.9-0.6,1.2c-0.3,0.3-0.6,0.6-1,0.8s-0.9,0.3-1.4,0.3
			c-0.5,0-1-0.1-1.4-0.3s-0.7-0.4-1-0.8c-0.3-0.3-0.5-0.7-0.6-1.2c-0.1-0.5-0.2-1.1-0.2-1.7V74c0-0.6,0.1-1.2,0.2-1.7
			c0.1-0.5,0.4-0.9,0.6-1.2s0.6-0.6,1-0.8c0.4-0.2,0.9-0.3,1.4-0.3c0.5,0,1,0.1,1.4,0.3c0.4,0.2,0.7,0.4,1,0.8s0.5,0.8,0.6,1.2
			c0.1,0.5,0.2,1.1,0.2,1.7V76.3z M137.5,76l3.9-3c-0.1-0.7-0.3-1.2-0.6-1.5c-0.3-0.3-0.8-0.5-1.4-0.5c-0.7,0-1.2,0.2-1.5,0.7
			c-0.3,0.4-0.5,1.1-0.5,2V76z M141.4,74.3l-3.9,3c0.1,0.6,0.3,1.1,0.6,1.5s0.8,0.5,1.3,0.5c0.7,0,1.2-0.2,1.5-0.7s0.5-1.1,0.5-2
			V74.3z"/>
	</g>
	<g class="st10">
		<path class="st11" d="M124.7,46.7h1.4v1h-1.4v2.3h-1.3v-2.3h-4.5V47l4.5-6.9h1.3V46.7z M120.3,46.7h3.1v-4.9l-0.2,0.4L120.3,46.7z
			"/>
		<path class="st11" d="M134.2,46.3c0,0.6-0.1,1.2-0.2,1.7c-0.1,0.5-0.4,0.9-0.6,1.2c-0.3,0.3-0.6,0.6-1,0.8s-0.9,0.3-1.4,0.3
			c-0.5,0-1-0.1-1.4-0.3s-0.7-0.4-1-0.8c-0.3-0.3-0.5-0.7-0.6-1.2c-0.1-0.5-0.2-1.1-0.2-1.7V44c0-0.6,0.1-1.2,0.2-1.7
			c0.1-0.5,0.4-0.9,0.6-1.2s0.6-0.6,1-0.8c0.4-0.2,0.9-0.3,1.4-0.3c0.5,0,1,0.1,1.4,0.3c0.4,0.2,0.7,0.4,1,0.8s0.5,0.8,0.6,1.2
			c0.1,0.5,0.2,1.1,0.2,1.7V46.3z M129.1,46l3.9-3c-0.1-0.7-0.3-1.2-0.6-1.5c-0.3-0.3-0.8-0.5-1.4-0.5c-0.7,0-1.2,0.2-1.5,0.7
			c-0.3,0.4-0.5,1.1-0.5,2V46z M133,44.3l-3.9,3c0.1,0.6,0.3,1.1,0.6,1.5s0.8,0.5,1.3,0.5c0.7,0,1.2-0.2,1.5-0.7s0.5-1.1,0.5-2V44.3
			z"/>
		<path class="st11" d="M142.6,46.3c0,0.6-0.1,1.2-0.2,1.7c-0.1,0.5-0.4,0.9-0.6,1.2c-0.3,0.3-0.6,0.6-1,0.8s-0.9,0.3-1.4,0.3
			c-0.5,0-1-0.1-1.4-0.3s-0.7-0.4-1-0.8c-0.3-0.3-0.5-0.7-0.6-1.2c-0.1-0.5-0.2-1.1-0.2-1.7V44c0-0.6,0.1-1.2,0.2-1.7
			c0.1-0.5,0.4-0.9,0.6-1.2s0.6-0.6,1-0.8c0.4-0.2,0.9-0.3,1.4-0.3c0.5,0,1,0.1,1.4,0.3c0.4,0.2,0.7,0.4,1,0.8s0.5,0.8,0.6,1.2
			c0.1,0.5,0.2,1.1,0.2,1.7V46.3z M137.5,46l3.9-3c-0.1-0.7-0.3-1.2-0.6-1.5c-0.3-0.3-0.8-0.5-1.4-0.5c-0.7,0-1.2,0.2-1.5,0.7
			c-0.3,0.4-0.5,1.1-0.5,2V46z M141.4,44.3l-3.9,3c0.1,0.6,0.3,1.1,0.6,1.5s0.8,0.5,1.3,0.5c0.7,0,1.2-0.2,1.5-0.7s0.5-1.1,0.5-2
			V44.3z"/>
	</g>
	<g class="st10">
		<path class="st11" d="M120,15.1l0.5-5h5.1v1.2h-4l-0.3,2.7c0.2-0.1,0.4-0.2,0.7-0.3s0.6-0.1,1-0.1c0.5,0,0.9,0.1,1.2,0.2
			s0.7,0.4,0.9,0.7c0.3,0.3,0.5,0.6,0.6,1s0.2,0.9,0.2,1.4c0,0.5-0.1,0.9-0.2,1.3s-0.3,0.8-0.6,1c-0.3,0.3-0.6,0.5-1,0.7
			c-0.4,0.2-0.9,0.3-1.4,0.3c-0.4,0-0.8-0.1-1.1-0.2s-0.7-0.3-1-0.5s-0.5-0.5-0.7-0.9s-0.3-0.8-0.3-1.2h1.2c0.1,0.6,0.3,1,0.6,1.3
			s0.8,0.4,1.3,0.4c0.3,0,0.6-0.1,0.8-0.2c0.2-0.1,0.4-0.3,0.6-0.5c0.2-0.2,0.3-0.4,0.4-0.7s0.1-0.6,0.1-0.9c0-0.3,0-0.6-0.1-0.9
			s-0.2-0.5-0.4-0.7c-0.2-0.2-0.4-0.4-0.6-0.5s-0.5-0.2-0.8-0.2c-0.2,0-0.4,0-0.5,0c-0.2,0-0.3,0.1-0.4,0.1s-0.2,0.1-0.3,0.2
			s-0.2,0.2-0.3,0.3L120,15.1z"/>
		<path class="st11" d="M134.2,16.3c0,0.6-0.1,1.2-0.2,1.7c-0.1,0.5-0.4,0.9-0.6,1.2c-0.3,0.3-0.6,0.6-1,0.8s-0.9,0.3-1.4,0.3
			c-0.5,0-1-0.1-1.4-0.3s-0.7-0.4-1-0.8c-0.3-0.3-0.5-0.7-0.6-1.2c-0.1-0.5-0.2-1.1-0.2-1.7V14c0-0.6,0.1-1.2,0.2-1.7
			c0.1-0.5,0.4-0.9,0.6-1.2s0.6-0.6,1-0.8c0.4-0.2,0.9-0.3,1.4-0.3c0.5,0,1,0.1,1.4,0.3c0.4,0.2,0.7,0.4,1,0.8s0.5,0.8,0.6,1.2
			c0.1,0.5,0.2,1.1,0.2,1.7V16.3z M129.1,16l3.9-3c-0.1-0.7-0.3-1.2-0.6-1.5c-0.3-0.3-0.8-0.5-1.4-0.5c-0.7,0-1.2,0.2-1.5,0.7
			c-0.3,0.4-0.5,1.1-0.5,2V16z M133,14.3l-3.9,3c0.1,0.6,0.3,1.1,0.6,1.5s0.8,0.5,1.3,0.5c0.7,0,1.2-0.2,1.5-0.7s0.5-1.1,0.5-2V14.3
			z"/>
		<path class="st11" d="M142.6,16.3c0,0.6-0.1,1.2-0.2,1.7c-0.1,0.5-0.4,0.9-0.6,1.2c-0.3,0.3-0.6,0.6-1,0.8s-0.9,0.3-1.4,0.3
			c-0.5,0-1-0.1-1.4-0.3s-0.7-0.4-1-0.8c-0.3-0.3-0.5-0.7-0.6-1.2c-0.1-0.5-0.2-1.1-0.2-1.7V14c0-0.6,0.1-1.2,0.2-1.7
			c0.1-0.5,0.4-0.9,0.6-1.2s0.6-0.6,1-0.8c0.4-0.2,0.9-0.3,1.4-0.3c0.5,0,1,0.1,1.4,0.3c0.4,0.2,0.7,0.4,1,0.8s0.5,0.8,0.6,1.2
			c0.1,0.5,0.2,1.1,0.2,1.7V16.3z M137.5,16l3.9-3c-0.1-0.7-0.3-1.2-0.6-1.5c-0.3-0.3-0.8-0.5-1.4-0.5c-0.7,0-1.2,0.2-1.5,0.7
			c-0.3,0.4-0.5,1.1-0.5,2V16z M141.4,14.3l-3.9,3c0.1,0.6,0.3,1.1,0.6,1.5s0.8,0.5,1.3,0.5c0.7,0,1.2-0.2,1.5-0.7s0.5-1.1,0.5-2
			V14.3z"/>
	</g>
</g>
<g>
	<g class="st10">
		<path class="st12" d="M238.9,140.1h-6.5v-0.9l3.3-3.6c0.3-0.3,0.5-0.6,0.7-0.9s0.4-0.5,0.5-0.7c0.1-0.2,0.2-0.4,0.3-0.6
			c0.1-0.2,0.1-0.4,0.1-0.6c0-0.2,0-0.5-0.1-0.7c-0.1-0.2-0.2-0.4-0.3-0.6s-0.3-0.3-0.6-0.4c-0.2-0.1-0.5-0.1-0.7-0.1
			c-0.3,0-0.6,0-0.9,0.1s-0.4,0.2-0.6,0.4c-0.2,0.2-0.3,0.4-0.4,0.6s-0.1,0.5-0.1,0.8h-1.3c0-0.4,0.1-0.8,0.2-1.2
			c0.1-0.4,0.4-0.7,0.6-1s0.6-0.5,1-0.7s0.9-0.2,1.4-0.2c0.5,0,0.9,0.1,1.3,0.2c0.4,0.1,0.7,0.3,1,0.6s0.5,0.5,0.6,0.9
			s0.2,0.7,0.2,1.1c0,0.3-0.1,0.6-0.2,0.9c-0.1,0.3-0.2,0.6-0.4,0.9s-0.4,0.6-0.6,0.8c-0.2,0.3-0.5,0.5-0.7,0.8l-2.7,2.9h5V140.1z"
			/>
		<path class="st12" d="M247.4,136.3c0,0.6-0.1,1.2-0.2,1.7c-0.1,0.5-0.4,0.9-0.6,1.2c-0.3,0.3-0.6,0.6-1,0.8s-0.9,0.3-1.4,0.3
			c-0.5,0-1-0.1-1.4-0.3c-0.4-0.2-0.7-0.4-1-0.8c-0.3-0.3-0.5-0.7-0.6-1.2c-0.1-0.5-0.2-1.1-0.2-1.7V134c0-0.6,0.1-1.2,0.2-1.7
			c0.1-0.5,0.4-0.9,0.6-1.2c0.3-0.3,0.6-0.6,1-0.8c0.4-0.2,0.9-0.3,1.4-0.3c0.5,0,1,0.1,1.4,0.3c0.4,0.2,0.7,0.4,1,0.8
			c0.3,0.3,0.5,0.8,0.6,1.2c0.1,0.5,0.2,1.1,0.2,1.7V136.3z M242.3,136l3.9-3c-0.1-0.7-0.3-1.2-0.6-1.5c-0.3-0.3-0.8-0.5-1.3-0.5
			c-0.7,0-1.2,0.2-1.5,0.7c-0.3,0.4-0.5,1.1-0.5,2V136z M246.2,134.3l-3.9,3c0.1,0.6,0.3,1.1,0.6,1.5c0.3,0.3,0.8,0.5,1.3,0.5
			c0.7,0,1.2-0.2,1.5-0.7c0.3-0.5,0.5-1.1,0.5-2V134.3z"/>
	</g>
	<g class="st10">
		<path class="st11" d="M237.9,106.7h1.4v1h-1.4v2.3h-1.3v-2.3h-4.5V107l4.5-6.9h1.3V106.7z M233.5,106.7h3.1v-4.9l-0.2,0.4
			L233.5,106.7z"/>
		<path class="st11" d="M247.4,106.3c0,0.6-0.1,1.2-0.2,1.7c-0.1,0.5-0.4,0.9-0.6,1.2c-0.3,0.3-0.6,0.6-1,0.8s-0.9,0.3-1.4,0.3
			c-0.5,0-1-0.1-1.4-0.3c-0.4-0.2-0.7-0.4-1-0.8c-0.3-0.3-0.5-0.7-0.6-1.2c-0.1-0.5-0.2-1.1-0.2-1.7V104c0-0.6,0.1-1.2,0.2-1.7
			c0.1-0.5,0.4-0.9,0.6-1.2c0.3-0.3,0.6-0.6,1-0.8c0.4-0.2,0.9-0.3,1.4-0.3c0.5,0,1,0.1,1.4,0.3c0.4,0.2,0.7,0.4,1,0.8
			c0.3,0.3,0.5,0.8,0.6,1.2c0.1,0.5,0.2,1.1,0.2,1.7V106.3z M242.3,106l3.9-3c-0.1-0.7-0.3-1.2-0.6-1.5c-0.3-0.3-0.8-0.5-1.3-0.5
			c-0.7,0-1.2,0.2-1.5,0.7c-0.3,0.4-0.5,1.1-0.5,2V106z M246.2,104.3l-3.9,3c0.1,0.6,0.3,1.1,0.6,1.5c0.3,0.3,0.8,0.5,1.3,0.5
			c0.7,0,1.2-0.2,1.5-0.7c0.3-0.5,0.5-1.1,0.5-2V104.3z"/>
	</g>
	<g class="st10">
		<path class="st11" d="M237.5,70.1v1.1h-0.1c-0.4,0-0.8,0-1.1,0.1s-0.6,0.2-0.9,0.4s-0.5,0.3-0.6,0.5c-0.2,0.2-0.3,0.4-0.4,0.7
			s-0.2,0.5-0.3,0.8s-0.1,0.5-0.1,0.8c0.1-0.1,0.3-0.3,0.4-0.4c0.2-0.1,0.3-0.2,0.5-0.3c0.2-0.1,0.4-0.2,0.6-0.2
			c0.2-0.1,0.4-0.1,0.7-0.1c0.5,0,0.9,0.1,1.3,0.3c0.4,0.2,0.7,0.4,0.9,0.7s0.4,0.7,0.5,1.1s0.2,0.8,0.2,1.2c0,0.5-0.1,0.9-0.2,1.3
			s-0.3,0.8-0.6,1.1c-0.3,0.3-0.6,0.5-1,0.7s-0.8,0.3-1.3,0.3c-0.4,0-0.7-0.1-1-0.2s-0.6-0.2-0.8-0.4c-0.2-0.2-0.4-0.4-0.6-0.6
			s-0.3-0.5-0.4-0.8s-0.2-0.6-0.3-0.9s-0.1-0.6-0.1-0.9v-0.6c0-0.5,0-0.9,0.1-1.4c0.1-0.5,0.2-0.9,0.3-1.3s0.3-0.8,0.6-1.2
			c0.2-0.4,0.5-0.7,0.9-1s0.8-0.5,1.3-0.6s1.1-0.2,1.7-0.2H237.5z M235.8,74.6c-0.2,0-0.4,0-0.6,0.1s-0.4,0.2-0.6,0.3
			s-0.3,0.3-0.5,0.4s-0.2,0.4-0.3,0.6v0.4c0,0.4,0.1,0.8,0.2,1.2c0.1,0.3,0.2,0.6,0.4,0.9s0.4,0.4,0.6,0.5c0.2,0.1,0.5,0.2,0.7,0.2
			c0.3,0,0.6-0.1,0.8-0.2s0.4-0.3,0.6-0.5s0.3-0.4,0.4-0.7c0.1-0.3,0.1-0.6,0.1-0.9c0-0.3,0-0.6-0.1-0.9c-0.1-0.3-0.2-0.5-0.3-0.7
			s-0.3-0.4-0.6-0.5S236.1,74.6,235.8,74.6z"/>
		<path class="st11" d="M247.4,76.3c0,0.6-0.1,1.2-0.2,1.7c-0.1,0.5-0.4,0.9-0.6,1.2c-0.3,0.3-0.6,0.6-1,0.8s-0.9,0.3-1.4,0.3
			c-0.5,0-1-0.1-1.4-0.3c-0.4-0.2-0.7-0.4-1-0.8c-0.3-0.3-0.5-0.7-0.6-1.2c-0.1-0.5-0.2-1.1-0.2-1.7V74c0-0.6,0.1-1.2,0.2-1.7
			c0.1-0.5,0.4-0.9,0.6-1.2c0.3-0.3,0.6-0.6,1-0.8c0.4-0.2,0.9-0.3,1.4-0.3c0.5,0,1,0.1,1.4,0.3c0.4,0.2,0.7,0.4,1,0.8
			c0.3,0.3,0.5,0.8,0.6,1.2c0.1,0.5,0.2,1.1,0.2,1.7V76.3z M242.3,76l3.9-3c-0.1-0.7-0.3-1.2-0.6-1.5c-0.3-0.3-0.8-0.5-1.3-0.5
			c-0.7,0-1.2,0.2-1.5,0.7c-0.3,0.4-0.5,1.1-0.5,2V76z M246.2,74.3l-3.9,3c0.1,0.6,0.3,1.1,0.6,1.5c0.3,0.3,0.8,0.5,1.3,0.5
			c0.7,0,1.2-0.2,1.5-0.7c0.3-0.5,0.5-1.1,0.5-2V74.3z"/>
	</g>
	<g class="st10">
		<path class="st11" d="M238.9,42.7c0,0.5-0.1,0.9-0.4,1.3s-0.6,0.7-1.1,0.9c0.3,0.1,0.5,0.2,0.7,0.4c0.2,0.2,0.4,0.3,0.5,0.6
			s0.3,0.4,0.3,0.7s0.1,0.5,0.1,0.8c0,0.5-0.1,0.9-0.2,1.2s-0.4,0.6-0.7,0.9c-0.3,0.2-0.6,0.4-1,0.5c-0.4,0.1-0.8,0.2-1.2,0.2
			c-0.4,0-0.9-0.1-1.2-0.2s-0.7-0.3-1-0.5c-0.3-0.2-0.5-0.5-0.7-0.9s-0.2-0.8-0.2-1.2c0-0.3,0-0.5,0.1-0.8c0.1-0.2,0.2-0.5,0.3-0.7
			c0.1-0.2,0.3-0.4,0.5-0.6s0.4-0.3,0.7-0.4c-0.2-0.1-0.4-0.2-0.6-0.4c-0.2-0.2-0.3-0.3-0.5-0.5c-0.1-0.2-0.2-0.4-0.3-0.6
			S233,43,233,42.7c0-0.4,0.1-0.8,0.2-1.2c0.1-0.3,0.3-0.6,0.6-0.9s0.6-0.4,0.9-0.5s0.7-0.2,1.2-0.2c0.4,0,0.8,0.1,1.2,0.2
			s0.7,0.3,0.9,0.5s0.5,0.5,0.6,0.9C238.8,41.9,238.9,42.3,238.9,42.7z M237.9,47.4c0-0.3,0-0.5-0.1-0.8s-0.2-0.4-0.4-0.6
			c-0.2-0.2-0.4-0.3-0.6-0.4s-0.5-0.1-0.8-0.1c-0.3,0-0.5,0-0.8,0.1s-0.4,0.2-0.6,0.4c-0.2,0.2-0.3,0.4-0.4,0.6s-0.1,0.5-0.1,0.8
			c0,0.3,0,0.5,0.1,0.8c0.1,0.2,0.2,0.4,0.4,0.6s0.4,0.3,0.6,0.4s0.5,0.1,0.8,0.1c0.3,0,0.5,0,0.8-0.1s0.4-0.2,0.6-0.4
			s0.3-0.3,0.4-0.6C237.8,47.9,237.9,47.7,237.9,47.4z M237.6,42.8c0-0.3,0-0.5-0.1-0.7s-0.2-0.4-0.3-0.5c-0.1-0.2-0.3-0.3-0.5-0.4
			c-0.2-0.1-0.4-0.1-0.7-0.1s-0.5,0-0.7,0.1c-0.2,0.1-0.4,0.2-0.5,0.3s-0.3,0.3-0.3,0.5c-0.1,0.2-0.1,0.4-0.1,0.7s0,0.5,0.1,0.7
			c0.1,0.2,0.2,0.4,0.3,0.5c0.1,0.1,0.3,0.3,0.5,0.3c0.2,0.1,0.4,0.1,0.7,0.1c0.2,0,0.5,0,0.7-0.1c0.2-0.1,0.4-0.2,0.5-0.3
			c0.1-0.1,0.3-0.3,0.3-0.5S237.6,43,237.6,42.8z"/>
		<path class="st11" d="M247.4,46.3c0,0.6-0.1,1.2-0.2,1.7c-0.1,0.5-0.4,0.9-0.6,1.2c-0.3,0.3-0.6,0.6-1,0.8s-0.9,0.3-1.4,0.3
			c-0.5,0-1-0.1-1.4-0.3c-0.4-0.2-0.7-0.4-1-0.8c-0.3-0.3-0.5-0.7-0.6-1.2c-0.1-0.5-0.2-1.1-0.2-1.7V44c0-0.6,0.1-1.2,0.2-1.7
			c0.1-0.5,0.4-0.9,0.6-1.2c0.3-0.3,0.6-0.6,1-0.8c0.4-0.2,0.9-0.3,1.4-0.3c0.5,0,1,0.1,1.4,0.3c0.4,0.2,0.7,0.4,1,0.8
			c0.3,0.3,0.5,0.8,0.6,1.2c0.1,0.5,0.2,1.1,0.2,1.7V46.3z M242.3,46l3.9-3c-0.1-0.7-0.3-1.2-0.6-1.5c-0.3-0.3-0.8-0.5-1.3-0.5
			c-0.7,0-1.2,0.2-1.5,0.7c-0.3,0.4-0.5,1.1-0.5,2V46z M246.2,44.3l-3.9,3c0.1,0.6,0.3,1.1,0.6,1.5c0.3,0.3,0.8,0.5,1.3,0.5
			c0.7,0,1.2-0.2,1.5-0.7c0.3-0.5,0.5-1.1,0.5-2V44.3z"/>
	</g>
	<g class="st10">
		<path class="st11" d="M232.7,20.1h-1.3v-8.3l-2.6,1v-1.2l3.8-1.4h0.1V20.1z"/>
		<path class="st11" d="M243.2,16.3c0,0.6-0.1,1.2-0.2,1.7c-0.1,0.5-0.4,0.9-0.6,1.2c-0.3,0.3-0.6,0.6-1,0.8s-0.8,0.3-1.4,0.3
			c-0.5,0-1-0.1-1.4-0.3s-0.7-0.4-1-0.8c-0.3-0.3-0.5-0.7-0.6-1.2c-0.1-0.5-0.2-1.1-0.2-1.7V14c0-0.6,0.1-1.2,0.2-1.7
			c0.1-0.5,0.4-0.9,0.6-1.2s0.6-0.6,1-0.8c0.4-0.2,0.9-0.3,1.4-0.3c0.5,0,1,0.1,1.4,0.3c0.4,0.2,0.7,0.4,1,0.8
			c0.3,0.3,0.5,0.8,0.6,1.2c0.1,0.5,0.2,1.1,0.2,1.7V16.3z M238.1,16l3.9-3c-0.1-0.7-0.3-1.2-0.6-1.5c-0.3-0.3-0.8-0.5-1.4-0.5
			c-0.7,0-1.2,0.2-1.5,0.7c-0.3,0.4-0.5,1.1-0.5,2V16z M242,14.3l-3.9,3c0.1,0.6,0.3,1.1,0.6,1.5s0.8,0.5,1.3,0.5
			c0.7,0,1.2-0.2,1.5-0.7c0.3-0.5,0.5-1.1,0.5-2V14.3z"/>
		<path class="st11" d="M251.6,16.3c0,0.6-0.1,1.2-0.2,1.7c-0.1,0.5-0.4,0.9-0.6,1.2c-0.3,0.3-0.6,0.6-1,0.8s-0.8,0.3-1.4,0.3
			c-0.5,0-1-0.1-1.4-0.3c-0.4-0.2-0.7-0.4-1-0.8c-0.3-0.3-0.5-0.7-0.6-1.2c-0.1-0.5-0.2-1.1-0.2-1.7V14c0-0.6,0.1-1.2,0.2-1.7
			c0.1-0.5,0.4-0.9,0.6-1.2c0.3-0.3,0.6-0.6,1-0.8c0.4-0.2,0.9-0.3,1.4-0.3c0.5,0,1,0.1,1.4,0.3c0.4,0.2,0.7,0.4,1,0.8
			c0.3,0.3,0.5,0.8,0.6,1.2c0.1,0.5,0.2,1.1,0.2,1.7V16.3z M246.5,16l3.9-3c-0.1-0.7-0.3-1.2-0.6-1.5c-0.3-0.3-0.8-0.5-1.4-0.5
			c-0.7,0-1.2,0.2-1.5,0.7c-0.3,0.4-0.5,1.1-0.5,2V16z M250.4,14.3l-3.9,3c0.1,0.6,0.3,1.1,0.6,1.5c0.3,0.3,0.8,0.5,1.3,0.5
			c0.7,0,1.2-0.2,1.5-0.7c0.3-0.5,0.5-1.1,0.5-2V14.3z"/>
	</g>
</g>
<g>
	<g class="st10">
		<path class="st12" d="M346.9,136.7h1.4v1h-1.4v2.3h-1.3v-2.3h-4.5V137l4.5-6.9h1.3V136.7z M342.5,136.7h3.1v-4.9l-0.2,0.4
			L342.5,136.7z"/>
		<path class="st12" d="M356.4,136.3c0,0.6-0.1,1.2-0.2,1.7c-0.1,0.5-0.4,0.9-0.6,1.2c-0.3,0.3-0.6,0.6-1,0.8s-0.9,0.3-1.4,0.3
			c-0.5,0-1-0.1-1.4-0.3c-0.4-0.2-0.7-0.4-1-0.8c-0.3-0.3-0.5-0.7-0.6-1.2c-0.1-0.5-0.2-1.1-0.2-1.7V134c0-0.6,0.1-1.2,0.2-1.7
			c0.1-0.5,0.4-0.9,0.6-1.2c0.3-0.3,0.6-0.6,1-0.8c0.4-0.2,0.9-0.3,1.4-0.3c0.5,0,1,0.1,1.4,0.3c0.4,0.2,0.7,0.4,1,0.8
			c0.3,0.3,0.5,0.8,0.6,1.2c0.1,0.5,0.2,1.1,0.2,1.7V136.3z M351.3,136l3.9-3c-0.1-0.7-0.3-1.2-0.6-1.5c-0.3-0.3-0.8-0.5-1.3-0.5
			c-0.7,0-1.2,0.2-1.5,0.7c-0.3,0.4-0.5,1.1-0.5,2V136z M355.2,134.3l-3.9,3c0.1,0.6,0.3,1.1,0.6,1.5c0.3,0.3,0.8,0.5,1.3,0.5
			c0.7,0,1.2-0.2,1.5-0.7c0.3-0.5,0.5-1.1,0.5-2V134.3z"/>
	</g>
	<g class="st10">
		<path class="st12" d="M347.9,102.7c0,0.5-0.1,0.9-0.4,1.3c-0.3,0.4-0.6,0.7-1.1,0.9c0.3,0.1,0.5,0.2,0.7,0.4
			c0.2,0.2,0.4,0.3,0.5,0.6c0.1,0.2,0.3,0.4,0.3,0.7c0.1,0.2,0.1,0.5,0.1,0.8c0,0.5-0.1,0.9-0.3,1.2c-0.2,0.4-0.4,0.6-0.7,0.9
			c-0.3,0.2-0.6,0.4-1,0.5c-0.4,0.1-0.8,0.2-1.2,0.2c-0.4,0-0.9-0.1-1.2-0.2c-0.4-0.1-0.7-0.3-1-0.5c-0.3-0.2-0.5-0.5-0.7-0.9
			s-0.2-0.8-0.2-1.2c0-0.3,0-0.5,0.1-0.8c0.1-0.2,0.2-0.5,0.3-0.7c0.1-0.2,0.3-0.4,0.5-0.6s0.4-0.3,0.7-0.4
			c-0.2-0.1-0.4-0.2-0.6-0.4c-0.2-0.2-0.3-0.3-0.5-0.5c-0.1-0.2-0.2-0.4-0.3-0.6s-0.1-0.5-0.1-0.7c0-0.4,0.1-0.8,0.2-1.2
			c0.1-0.3,0.3-0.6,0.6-0.9c0.3-0.2,0.6-0.4,0.9-0.5c0.4-0.1,0.7-0.2,1.2-0.2c0.4,0,0.8,0.1,1.2,0.2c0.4,0.1,0.7,0.3,0.9,0.5
			c0.3,0.2,0.5,0.5,0.6,0.9C347.8,101.9,347.9,102.3,347.9,102.7z M346.9,107.4c0-0.3,0-0.5-0.1-0.8c-0.1-0.2-0.2-0.4-0.4-0.6
			c-0.2-0.2-0.4-0.3-0.6-0.4c-0.2-0.1-0.5-0.1-0.8-0.1c-0.3,0-0.5,0-0.8,0.1s-0.4,0.2-0.6,0.4c-0.2,0.2-0.3,0.4-0.4,0.6
			s-0.1,0.5-0.1,0.8c0,0.3,0,0.5,0.1,0.8c0.1,0.2,0.2,0.4,0.4,0.6s0.4,0.3,0.6,0.4c0.2,0.1,0.5,0.1,0.8,0.1c0.3,0,0.5,0,0.8-0.1
			s0.4-0.2,0.6-0.4c0.2-0.2,0.3-0.3,0.4-0.6C346.8,107.9,346.9,107.7,346.9,107.4z M346.6,102.8c0-0.3,0-0.5-0.1-0.7
			c-0.1-0.2-0.2-0.4-0.3-0.5c-0.1-0.2-0.3-0.3-0.5-0.4c-0.2-0.1-0.4-0.1-0.7-0.1s-0.5,0-0.7,0.1c-0.2,0.1-0.4,0.2-0.5,0.3
			c-0.1,0.2-0.3,0.3-0.3,0.5c-0.1,0.2-0.1,0.4-0.1,0.7s0,0.5,0.1,0.7c0.1,0.2,0.2,0.4,0.3,0.5c0.1,0.1,0.3,0.3,0.5,0.3
			c0.2,0.1,0.4,0.1,0.7,0.1c0.2,0,0.5,0,0.7-0.1c0.2-0.1,0.4-0.2,0.5-0.3c0.1-0.1,0.3-0.3,0.3-0.5S346.6,103,346.6,102.8z"/>
		<path class="st12" d="M356.4,106.3c0,0.6-0.1,1.2-0.2,1.7c-0.1,0.5-0.4,0.9-0.6,1.2c-0.3,0.3-0.6,0.6-1,0.8s-0.9,0.3-1.4,0.3
			c-0.5,0-1-0.1-1.4-0.3c-0.4-0.2-0.7-0.4-1-0.8c-0.3-0.3-0.5-0.7-0.6-1.2c-0.1-0.5-0.2-1.1-0.2-1.7V104c0-0.6,0.1-1.2,0.2-1.7
			c0.1-0.5,0.4-0.9,0.6-1.2c0.3-0.3,0.6-0.6,1-0.8c0.4-0.2,0.9-0.3,1.4-0.3c0.5,0,1,0.1,1.4,0.3c0.4,0.2,0.7,0.4,1,0.8
			c0.3,0.3,0.5,0.8,0.6,1.2c0.1,0.5,0.2,1.1,0.2,1.7V106.3z M351.3,106l3.9-3c-0.1-0.7-0.3-1.2-0.6-1.5c-0.3-0.3-0.8-0.5-1.3-0.5
			c-0.7,0-1.2,0.2-1.5,0.7c-0.3,0.4-0.5,1.1-0.5,2V106z M355.2,104.3l-3.9,3c0.1,0.6,0.3,1.1,0.6,1.5c0.3,0.3,0.8,0.5,1.3,0.5
			c0.7,0,1.2-0.2,1.5-0.7c0.3-0.5,0.5-1.1,0.5-2V104.3z"/>
	</g>
	<g class="st10">
		<path class="st11" d="M341.7,80.1h-1.3v-8.3l-2.6,1v-1.2l3.8-1.4h0.1V80.1z"/>
		<path class="st11" d="M352.1,80.1h-6.5v-0.9l3.3-3.6c0.3-0.3,0.5-0.6,0.7-0.9c0.2-0.3,0.4-0.5,0.5-0.7c0.1-0.2,0.2-0.4,0.3-0.6
			c0-0.2,0.1-0.4,0.1-0.6c0-0.2,0-0.5-0.1-0.7c-0.1-0.2-0.2-0.4-0.3-0.6c-0.2-0.2-0.3-0.3-0.6-0.4c-0.2-0.1-0.5-0.1-0.7-0.1
			c-0.3,0-0.6,0-0.9,0.1c-0.2,0.1-0.4,0.2-0.6,0.4c-0.2,0.2-0.3,0.4-0.4,0.6c-0.1,0.3-0.1,0.5-0.1,0.8h-1.3c0-0.4,0.1-0.8,0.2-1.2
			c0.1-0.4,0.4-0.7,0.6-1c0.3-0.3,0.6-0.5,1-0.7c0.4-0.2,0.9-0.2,1.4-0.2c0.5,0,0.9,0.1,1.3,0.2c0.4,0.1,0.7,0.3,1,0.6
			s0.5,0.5,0.6,0.9c0.1,0.3,0.2,0.7,0.2,1.1c0,0.3-0.1,0.6-0.2,0.9c-0.1,0.3-0.2,0.6-0.4,0.9s-0.4,0.6-0.6,0.8
			c-0.2,0.3-0.5,0.5-0.7,0.8l-2.7,2.9h5V80.1z"/>
		<path class="st11" d="M360.6,76.3c0,0.6-0.1,1.2-0.2,1.7c-0.1,0.5-0.4,0.9-0.6,1.2c-0.3,0.3-0.6,0.6-1,0.8s-0.9,0.3-1.4,0.3
			c-0.5,0-1-0.1-1.4-0.3c-0.4-0.2-0.7-0.4-1-0.8c-0.3-0.3-0.5-0.7-0.6-1.2c-0.1-0.5-0.2-1.1-0.2-1.7V74c0-0.6,0.1-1.2,0.2-1.7
			c0.1-0.5,0.4-0.9,0.6-1.2c0.3-0.3,0.6-0.6,1-0.8c0.4-0.2,0.9-0.3,1.4-0.3c0.5,0,1,0.1,1.4,0.3c0.4,0.2,0.7,0.4,1,0.8
			c0.3,0.3,0.5,0.8,0.6,1.2c0.1,0.5,0.2,1.1,0.2,1.7V76.3z M355.5,76l3.9-3c-0.1-0.7-0.3-1.2-0.6-1.5c-0.3-0.3-0.8-0.5-1.3-0.5
			c-0.7,0-1.2,0.2-1.5,0.7c-0.3,0.4-0.5,1.1-0.5,2V76z M359.4,74.3l-3.9,3c0.1,0.6,0.3,1.1,0.6,1.5c0.3,0.3,0.8,0.5,1.3,0.5
			c0.7,0,1.2-0.2,1.5-0.7c0.3-0.5,0.5-1.1,0.5-2V74.3z"/>
	</g>
	<g class="st10">
		<path class="st11" d="M341.7,50.1h-1.3v-8.3l-2.6,1v-1.2l3.8-1.4h0.1V50.1z"/>
		<path class="st11" d="M350.7,40.1v1.1h-0.1c-0.4,0-0.8,0-1.1,0.1c-0.3,0.1-0.6,0.2-0.9,0.4c-0.3,0.2-0.5,0.3-0.6,0.5
			c-0.2,0.2-0.3,0.4-0.4,0.7c-0.1,0.2-0.2,0.5-0.3,0.8c-0.1,0.3-0.1,0.5-0.1,0.8c0.1-0.1,0.3-0.3,0.4-0.4c0.2-0.1,0.3-0.2,0.5-0.3
			c0.2-0.1,0.4-0.2,0.6-0.2c0.2-0.1,0.4-0.1,0.7-0.1c0.5,0,0.9,0.1,1.3,0.3c0.4,0.2,0.7,0.4,0.9,0.7s0.4,0.7,0.5,1.1
			s0.2,0.8,0.2,1.2c0,0.5-0.1,0.9-0.2,1.3s-0.3,0.8-0.6,1.1c-0.3,0.3-0.6,0.5-1,0.7c-0.4,0.2-0.8,0.3-1.3,0.3c-0.4,0-0.7-0.1-1-0.2
			c-0.3-0.1-0.6-0.2-0.8-0.4c-0.2-0.2-0.4-0.4-0.6-0.6s-0.3-0.5-0.4-0.8s-0.2-0.6-0.3-0.9c-0.1-0.3-0.1-0.6-0.1-0.9v-0.6
			c0-0.5,0-0.9,0.1-1.4c0.1-0.5,0.2-0.9,0.3-1.3s0.3-0.8,0.6-1.2c0.2-0.4,0.5-0.7,0.9-1c0.4-0.3,0.8-0.5,1.3-0.6
			c0.5-0.2,1.1-0.2,1.7-0.2H350.7z M349,44.6c-0.2,0-0.4,0-0.6,0.1c-0.2,0.1-0.4,0.2-0.6,0.3c-0.2,0.1-0.3,0.3-0.5,0.4
			c-0.1,0.2-0.2,0.4-0.3,0.6v0.4c0,0.4,0.1,0.8,0.2,1.2c0.1,0.3,0.2,0.6,0.4,0.9s0.4,0.4,0.6,0.5c0.2,0.1,0.5,0.2,0.7,0.2
			c0.3,0,0.6-0.1,0.8-0.2c0.2-0.1,0.4-0.3,0.6-0.5s0.3-0.4,0.4-0.7c0.1-0.3,0.1-0.6,0.1-0.9c0-0.3,0-0.6-0.1-0.9
			c-0.1-0.3-0.2-0.5-0.3-0.7s-0.3-0.4-0.6-0.5C349.6,44.7,349.3,44.6,349,44.6z"/>
		<path class="st11" d="M360.6,46.3c0,0.6-0.1,1.2-0.2,1.7c-0.1,0.5-0.4,0.9-0.6,1.2c-0.3,0.3-0.6,0.6-1,0.8s-0.8,0.3-1.4,0.3
			c-0.5,0-1-0.1-1.4-0.3c-0.4-0.2-0.7-0.4-1-0.8c-0.3-0.3-0.5-0.7-0.6-1.2c-0.1-0.5-0.2-1.1-0.2-1.7V44c0-0.6,0.1-1.2,0.2-1.7
			c0.1-0.5,0.4-0.9,0.6-1.2c0.3-0.3,0.6-0.6,1-0.8c0.4-0.2,0.9-0.3,1.4-0.3c0.5,0,1,0.1,1.4,0.3c0.4,0.2,0.7,0.4,1,0.8
			c0.3,0.3,0.5,0.8,0.6,1.2c0.1,0.5,0.2,1.1,0.2,1.7V46.3z M355.5,46l3.9-3c-0.1-0.7-0.3-1.2-0.6-1.5c-0.3-0.3-0.8-0.5-1.4-0.5
			c-0.7,0-1.2,0.2-1.5,0.7c-0.3,0.4-0.5,1.1-0.5,2V46z M359.4,44.3l-3.9,3c0.1,0.6,0.3,1.1,0.6,1.5c0.3,0.3,0.8,0.5,1.3,0.5
			c0.7,0,1.2-0.2,1.5-0.7c0.3-0.5,0.5-1.1,0.5-2V44.3z"/>
	</g>
	<g class="st10">
		<path class="st11" d="M343.7,20.1h-6.5v-0.9l3.3-3.6c0.3-0.3,0.5-0.6,0.7-0.9c0.2-0.3,0.4-0.5,0.5-0.7c0.1-0.2,0.2-0.4,0.3-0.6
			c0-0.2,0.1-0.4,0.1-0.6c0-0.2,0-0.5-0.1-0.7c-0.1-0.2-0.2-0.4-0.3-0.6c-0.2-0.2-0.3-0.3-0.6-0.4c-0.2-0.1-0.5-0.1-0.7-0.1
			c-0.3,0-0.6,0-0.9,0.1c-0.2,0.1-0.4,0.2-0.6,0.4c-0.2,0.2-0.3,0.4-0.4,0.6c-0.1,0.3-0.1,0.5-0.1,0.8H337c0-0.4,0.1-0.8,0.2-1.2
			c0.1-0.4,0.4-0.7,0.6-1c0.3-0.3,0.6-0.5,1-0.7c0.4-0.2,0.9-0.2,1.4-0.2c0.5,0,0.9,0.1,1.3,0.2c0.4,0.1,0.7,0.3,1,0.6
			s0.5,0.5,0.6,0.9c0.1,0.3,0.2,0.7,0.2,1.1c0,0.3-0.1,0.6-0.2,0.9c-0.1,0.3-0.2,0.6-0.4,0.9s-0.4,0.6-0.6,0.8
			c-0.2,0.3-0.5,0.5-0.7,0.8l-2.7,2.9h5V20.1z"/>
		<path class="st11" d="M352.2,16.3c0,0.6-0.1,1.2-0.2,1.7c-0.1,0.5-0.4,0.9-0.6,1.2c-0.3,0.3-0.6,0.6-1,0.8s-0.9,0.3-1.4,0.3
			c-0.5,0-1-0.1-1.4-0.3c-0.4-0.2-0.7-0.4-1-0.8c-0.3-0.3-0.5-0.7-0.6-1.2c-0.1-0.5-0.2-1.1-0.2-1.7V14c0-0.6,0.1-1.2,0.2-1.7
			c0.1-0.5,0.4-0.9,0.6-1.2c0.3-0.3,0.6-0.6,1-0.8c0.4-0.2,0.9-0.3,1.4-0.3c0.5,0,1,0.1,1.4,0.3c0.4,0.2,0.7,0.4,1,0.8
			c0.3,0.3,0.5,0.8,0.6,1.2c0.1,0.5,0.2,1.1,0.2,1.7V16.3z M347.1,16l3.9-3c-0.1-0.7-0.3-1.2-0.6-1.5c-0.3-0.3-0.8-0.5-1.3-0.5
			c-0.7,0-1.2,0.2-1.5,0.7c-0.3,0.4-0.5,1.1-0.5,2V16z M351,14.3l-3.9,3c0.1,0.6,0.3,1.1,0.6,1.5c0.3,0.3,0.8,0.5,1.3,0.5
			c0.7,0,1.2-0.2,1.5-0.7c0.3-0.5,0.5-1.1,0.5-2V14.3z"/>
		<path class="st11" d="M360.6,16.3c0,0.6-0.1,1.2-0.2,1.7c-0.1,0.5-0.4,0.9-0.6,1.2c-0.3,0.3-0.6,0.6-1,0.8s-0.9,0.3-1.4,0.3
			c-0.5,0-1-0.1-1.4-0.3c-0.4-0.2-0.7-0.4-1-0.8c-0.3-0.3-0.5-0.7-0.6-1.2c-0.1-0.5-0.2-1.1-0.2-1.7V14c0-0.6,0.1-1.2,0.2-1.7
			c0.1-0.5,0.4-0.9,0.6-1.2c0.3-0.3,0.6-0.6,1-0.8c0.4-0.2,0.9-0.3,1.4-0.3c0.5,0,1,0.1,1.4,0.3c0.4,0.2,0.7,0.4,1,0.8
			c0.3,0.3,0.5,0.8,0.6,1.2c0.1,0.5,0.2,1.1,0.2,1.7V16.3z M355.5,16l3.9-3c-0.1-0.7-0.3-1.2-0.6-1.5c-0.3-0.3-0.8-0.5-1.3-0.5
			c-0.7,0-1.2,0.2-1.5,0.7c-0.3,0.4-0.5,1.1-0.5,2V16z M359.4,14.3l-3.9,3c0.1,0.6,0.3,1.1,0.6,1.5c0.3,0.3,0.8,0.5,1.3,0.5
			c0.7,0,1.2-0.2,1.5-0.7c0.3-0.5,0.5-1.1,0.5-2V14.3z"/>
	</g>
</g>
<g>
	<g class="st10">
		<path class="st12" d="M459.1,140.1h-1.3v-8.3l-2.6,1v-1.2l3.8-1.4h0.1V140.1z"/>
	</g>
	<g class="st10">
		<path class="st12" d="M461.1,110.1h-6.5v-0.9l3.3-3.6c0.3-0.3,0.5-0.6,0.7-0.9c0.2-0.3,0.4-0.5,0.5-0.7c0.1-0.2,0.2-0.4,0.3-0.6
			c0-0.2,0.1-0.4,0.1-0.6c0-0.2,0-0.5-0.1-0.7c-0.1-0.2-0.2-0.4-0.3-0.6c-0.2-0.2-0.3-0.3-0.6-0.4c-0.2-0.1-0.5-0.1-0.7-0.1
			c-0.3,0-0.6,0-0.9,0.1c-0.2,0.1-0.4,0.2-0.6,0.4c-0.2,0.2-0.3,0.4-0.4,0.6c-0.1,0.3-0.1,0.5-0.1,0.8h-1.3c0-0.4,0.1-0.8,0.2-1.2
			c0.1-0.4,0.4-0.7,0.6-1c0.3-0.3,0.6-0.5,1-0.7c0.4-0.2,0.9-0.2,1.4-0.2c0.5,0,0.9,0.1,1.3,0.2c0.4,0.1,0.7,0.3,1,0.6
			s0.5,0.5,0.6,0.9c0.1,0.3,0.2,0.7,0.2,1.1c0,0.3-0.1,0.6-0.2,0.9c-0.1,0.3-0.2,0.6-0.4,0.9s-0.4,0.6-0.6,0.8
			c-0.2,0.3-0.5,0.5-0.7,0.8l-2.7,2.9h5V110.1z"/>
	</g>
	<g class="st10">
		<path class="st12" d="M456.5,74.5h0.9c0.3,0,0.6,0,0.8-0.1c0.2-0.1,0.4-0.2,0.6-0.4c0.2-0.2,0.3-0.3,0.4-0.5
			c0.1-0.2,0.1-0.4,0.1-0.7c0-0.6-0.1-1-0.4-1.3c-0.3-0.3-0.7-0.4-1.3-0.4c-0.3,0-0.5,0-0.7,0.1c-0.2,0.1-0.4,0.2-0.6,0.3
			s-0.3,0.3-0.4,0.5c-0.1,0.2-0.1,0.4-0.1,0.7h-1.3c0-0.4,0.1-0.7,0.2-1.1c0.1-0.3,0.4-0.6,0.6-0.9c0.3-0.2,0.6-0.4,1-0.6
			c0.4-0.1,0.8-0.2,1.3-0.2c0.4,0,0.9,0.1,1.2,0.2c0.4,0.1,0.7,0.3,1,0.5c0.3,0.2,0.5,0.5,0.6,0.9c0.1,0.4,0.2,0.8,0.2,1.2
			c0,0.2,0,0.4-0.1,0.6c-0.1,0.2-0.2,0.4-0.3,0.6c-0.1,0.2-0.3,0.4-0.5,0.5c-0.2,0.2-0.4,0.3-0.7,0.4c0.3,0.1,0.6,0.2,0.8,0.4
			c0.2,0.2,0.4,0.4,0.5,0.6s0.2,0.4,0.3,0.7c0.1,0.2,0.1,0.5,0.1,0.7c0,0.5-0.1,0.9-0.2,1.2c-0.2,0.4-0.4,0.7-0.7,0.9
			c-0.3,0.2-0.6,0.4-1,0.6c-0.4,0.1-0.8,0.2-1.2,0.2c-0.4,0-0.8-0.1-1.2-0.2c-0.4-0.1-0.7-0.3-1-0.5c-0.3-0.2-0.5-0.5-0.7-0.9
			c-0.2-0.3-0.2-0.7-0.2-1.2h1.3c0,0.3,0,0.5,0.1,0.7s0.2,0.4,0.4,0.5s0.4,0.3,0.6,0.3c0.2,0.1,0.5,0.1,0.8,0.1s0.5,0,0.8-0.1
			c0.2-0.1,0.4-0.2,0.6-0.3s0.3-0.3,0.4-0.6c0.1-0.2,0.1-0.5,0.1-0.8c0-0.3-0.1-0.6-0.2-0.8c-0.1-0.2-0.2-0.4-0.4-0.6
			s-0.4-0.3-0.7-0.3c-0.3-0.1-0.5-0.1-0.9-0.1h-0.9V74.5z"/>
	</g>
	<g class="st10">
		<path class="st11" d="M460.1,46.7h1.4v1h-1.4v2.3h-1.3v-2.3h-4.5V47l4.5-6.9h1.3V46.7z M455.7,46.7h3.1v-4.9l-0.2,0.4L455.7,46.7z
			"/>
	</g>
	<g class="st10">
		<path class="st11" d="M455.4,15.1l0.5-5h5.1v1.2h-4l-0.3,2.7c0.2-0.1,0.4-0.2,0.7-0.3s0.6-0.1,1-0.1c0.5,0,0.9,0.1,1.2,0.2
			c0.4,0.2,0.7,0.4,0.9,0.7c0.3,0.3,0.5,0.6,0.6,1s0.2,0.9,0.2,1.4c0,0.5-0.1,0.9-0.2,1.3c-0.1,0.4-0.3,0.8-0.6,1
			c-0.3,0.3-0.6,0.5-1,0.7c-0.4,0.2-0.9,0.3-1.4,0.3c-0.4,0-0.8-0.1-1.1-0.2c-0.4-0.1-0.7-0.3-1-0.5s-0.5-0.5-0.7-0.9
			c-0.2-0.3-0.3-0.8-0.3-1.2h1.2c0.1,0.6,0.3,1,0.6,1.3c0.3,0.3,0.8,0.4,1.3,0.4c0.3,0,0.6-0.1,0.8-0.2c0.2-0.1,0.4-0.3,0.6-0.5
			c0.2-0.2,0.3-0.4,0.4-0.7c0.1-0.3,0.1-0.6,0.1-0.9c0-0.3,0-0.6-0.1-0.9s-0.2-0.5-0.4-0.7c-0.2-0.2-0.4-0.4-0.6-0.5
			s-0.5-0.2-0.8-0.2c-0.2,0-0.4,0-0.5,0c-0.2,0-0.3,0.1-0.4,0.1s-0.2,0.1-0.3,0.2c-0.1,0.1-0.2,0.2-0.3,0.3L455.4,15.1z"/>
	</g>
</g>
</svg>
