<svg version="1.1" id="Layer_1" xmlns="http://www.w3.org/2000/svg" xmlns:xlink="http://www.w3.org/1999/xlink" x="0px" y="0px"
	 viewBox="0 0 120 120" style="enable-background:new 0 0 120 120;" xml:space="preserve">
<style type="text/css">
	.st0{opacity:0.2;}
	.st1{fill:none;stroke:#0053B3;stroke-width:1.2;stroke-miterlimit:10;}
</style>
<g class="st0">
	<path class="st1" d="M39.5,62.5c0,0-0.1,2,0,2s2,2.7,2.9,4.1c0.9,1.4,1.6,3.8,1.3,4.5s-2.6-0.3,0.6,2.9s2.7,4.3,3.3,5.2
		s2.4,0.5,2.9,0s0.6-2,1.8-1.8c1.2,0.2,4,0.1,4.7,0.9c0.7,0.9,1.6,1.2,3.5,1.2s2.7-0.9,3.6,0.3c0.9,1.2,8.6,4.3,9.6,5
		c1,0.7,2.3,1.6,4.1,0c1.8-1.6,0.3-3.1,0.5-4.1s1.5-1.1,1.6-2.6s-0.5-2.6-1.7-3.5c-1.2-0.9-3.5-1.2-5.7-3.4C70.1,71,68,71,65.3,70
		s-4.3-0.8-5.8-2.2s-1.4-3.2-3.1-3.6s-2.5,0.1-5.3,0.5c-2.8,0.3-4,0.4-5.4,0.1s-3.4-2.6-4.8-2.6C39.5,61.9,39.5,62.5,39.5,62.5z"/>
	<path class="st1" d="M35.3,70.6c0,0,0.7,0.3,1.2,1.1s1.9,2.1,2.6,1.3s2.5-3.6,1.9-3.8s-2.1-0.6-2.8-0.5s-0.3,0.4-0.7,0.6
		s-2.3,0.2-2.2,0.5S35.3,70.6,35.3,70.6z"/>
	<path class="st1" d="M29.2,71.7c0,0-1.5,0.6-2,0S26,70,25.9,70.9s-0.5,2.8,1.1,3.5s2,3.6,1.3,5.2c-0.7,1.5-0.6,1.9,0.7,2.7
		s1.2,3.1,3.2,1.2s5.3-2.4,5.4-3.9s-0.5-3.5-1.4-4.8c-1-1.3-1.4-0.8-2.2-1.8s-0.4-1.9-1.9-2.1C30.5,70.7,29.2,71.7,29.2,71.7z"/>
	<path class="st1" d="M48.1,85.3c0.1,1.2-0.1,2,0.7,2s2.1-2,2.1-2l-1.4-1L48.1,85.3z"/>
	<path class="st1" d="M52,81.9c0.9,0.3,2.2,1,2.2,1s0.8-1.4,0-1.6s-1.9-0.9-2.2-0.6C51.7,81,52,81.9,52,81.9z"/>
	<polygon class="st1" points="56.3,82.9 56.3,84.3 58,84.3 57.5,81.8 	"/>
	<path class="st1" d="M48.1,105.9c-0.6-0.1-2.1,2.2-2.1,2.2s-0.6,0.8,0.6,0.8s2.2-2.2,2.2-2.2l0.7-1.4L48.1,105.9z"/>
	<path class="st1" d="M52.8,103.6l-2.7,5.4c0,0,1.1,0.1,1.4,1c0.3,0.9,2.8-1.2,3.2-0.6c0.5,0.6,4.5,2.7,4.9,3.8
		c0.4,1.1-0.9,1.9,0.8,2.2c1.7,0.3,2.7-0.5,3,0c0.3,0.5,2-0.1,2.1-0.4c0.1-0.3,1.7-3.5,0.9-4.3s-4-1.5-5-2.3s-2.6-3.1-2.6-3.1
		l-0.8-3.5c0,0-0.7,1.1-1.7,1.3S52.8,103.6,52.8,103.6z"/>
	<path class="st1" d="M67.5,104.8c0,0,2.2,2.9,3.4,3.2s3.7,0.9,4.8,0.5s-0.2-1-1-1s-1.2-0.8-1.2-0.8s-1.9,0.7-2.1-0.2
		s0.1-1.4-0.1-2.1c-0.1-0.7-2.2-1.1-2.6-1C68.3,103.4,67.5,104.8,67.5,104.8z"/>
	<path class="st1" d="M67.5,98.4l7.2,4.7c0,0,1.7,1.4,2.6,1.5s3.2-0.1,2.1-1c-1.1-0.9-3.5-3.2-3.3-3.9s0.9-1,0.8-1.3
		c-0.1-0.3-2.2-1.9-4.3-2.1c-2.1-0.2-1.8,0.7-3.6,0.9C67.2,97.3,67.5,98.4,67.5,98.4z"/>
	<path class="st1" d="M74.7,94.7c0.3,0.7,2.9,2.3,3.5,1.6s2.2-1.2,2.1-2.1c-0.1-0.8-0.8-0.8-2.8-1.6c-2.1-0.8-2.8,0.1-2.8,0.9
		S74.7,94.7,74.7,94.7z"/>
	<path class="st1" d="M79.7,87.6c0,0,5.2,4.3,4.9,5.3c-0.3,0.9-0.5,2.4,0,3.4s1.1,2.1,2.4,1.9s2.4-1.1,1.8-1.4
		c-0.6-0.3-2.3,0.4-2-1.3s1.5-0.4,2.1-2.7s-0.4-3-0.6-3.7c-0.2-0.7,1-2.7,0.8-2.8s-3.4-0.1-4.4,0s-0.9-1.1-2.3-1
		C81.1,85.5,79.7,87.6,79.7,87.6z"/>
	<path class="st1" d="M84.9,78.2c0,0-2.6,3.7-1.7,4.5s2.4,1.7,2.6,0.3s1.2-2.3,1.2-3.8C87.1,77.6,84.9,78.2,84.9,78.2z"/>
	<path class="st1" d="M59.5,62.9c0,0,1.7,2.5,2.5,2.3s4.1-4.1,4.1-4.1s-0.3-1.4-1.8-1.5c-1.5,0-4.4,0.7-4.5,1.7
		C59.8,62.3,59.5,62.9,59.5,62.9z"/>
	<path class="st1" d="M48.1,63.1c0,0,3.5-1.2,3.2-1.9s-0.5-1.8-1.6-1.9c-1,0-4.2,0.6-3.3,1.5c0.9,1,1.5,2,1.5,2L48.1,63.1z"/>
	<path class="st1" d="M42.1,46.4c0,0-0.9,1.4,0,1.6s-0.4,2.5-0.4,2.5s-2.5-1.3-2-2.1c0.5-0.8,2-2.1,2-2.1L42.1,46.4L42.1,46.4z"/>
	<path class="st1" d="M54.2,50.5c0,0,4,3.5,8,4.2s6.2,1.4,7.1,1.5c0.9,0.1,0.6-4.9,0-6.5s-1.9-2-1.7-2.8s1.2-2.8,0-2.5
		s-7.8,3-8.7,3.2c-0.9,0.2-1.6-0.7-2.5,0.2S54.2,50.5,54.2,50.5z"/>
	<path class="st1" d="M71.8,52.9c0,0,0.4,2.3,1.8,2.5c1.4,0.2,3.3-1.3,3.3-1.3s2.1-1,0.6-1.3S71.8,52.9,71.8,52.9z"/>
	<path class="st1" d="M78.1,55.4c0,0,3.3,0.7,4.4-0.4c1.1-1.1,1.3-1.8,1.9-1.8c0.6,0,1.5,0.8,2.1,1.2s1.7-0.3,1.7-0.3
		s2.4-2.2-1.2-2.2s-5.9-0.8-6.7,0s-1.7,1.6-1.8,2.2C78.5,54.7,78.1,55.4,78.1,55.4z"/>
	<path class="st1" d="M75.7,36.1l4.2-0.5c0,0,1.9-0.4,3.9,0c2,0.4,2.7,1.2,4.2,0.7c1.6-0.4,4.2-1.9,2-2.6s-3.9-0.9-5.2-0.9
		c-1.3,0-0.9-1-3.4-1s-3.9-1.1-5-0.4s-3.5,0.8-2.3,2.8C75.3,36.2,75.7,36.1,75.7,36.1z"/>
	<path class="st1" d="M91.6,3.5c-1.7,2.6-2,2.3-0.8,3.1s3.5,0,3.5,0s-1.5-3.1-2.1-3.1C91.6,3.5,91.6,3.5,91.6,3.5z"/>
</g>
</svg>
